<svg width="20" height="21" viewBox="0 0 20 21" fill="none" xmlns="http://www.w3.org/2000/svg"><path d="M12.0465 16.4272L16.2641 12.2096C15.588 14.1823 14.0192 15.7511 12.0465 16.4272Z" stroke="#006DF9" stroke-width="1.5"/><mask id="path-2-inside-1_5340_6223" fill="white"><path d="M6.5 16.7881C4 15.5381 2.25 13.0381 2.25 10.0381C2.25 5.91309 5.625 2.53809 9.75 2.53809C12.75 2.53809 15.375 4.28809 16.625 6.91309"/></mask><path d="M7.17082 15.4464C5.13224 14.4272 3.75 12.4195 3.75 10.0381H0.75C0.75 13.6567 2.86776 16.649 5.82918 18.1297L7.17082 15.4464ZM3.75 10.0381C3.75 6.74151 6.45343 4.03809 9.75 4.03809V1.03809C4.79657 1.03809 0.75 5.08466 0.75 10.0381H3.75ZM9.75 4.03809C12.1492 4.03809 14.2597 5.43496 15.2707 7.55799L17.9793 6.26819C16.4903 3.14122 13.3508 1.03809 9.75 1.03809V4.03809Z" fill="#006DF9" mask="url(#path-2-inside-1_5340_6223)"/><mask id="path-4-inside-2_5340_6223" fill="white"><path d="M13.5 3.53811C15.5 2.28811 17.125 1.91311 17.75 2.53811C18.875 3.66311 16.375 8.16311 12.125 12.4131C7.87503 16.6631 3.37502 19.2881 2.25002 18.0381C1.62502 17.4131 2.00002 15.7881 3.25002 13.7881"/></mask><path d="M2.25002 18.0381L3.36497 17.0347L3.33858 17.0053L3.31068 16.9774L2.25002 18.0381ZM14.295 4.81011C15.2151 4.23508 15.9651 3.91661 16.4825 3.79552C17.1067 3.64943 16.9599 3.86931 16.6894 3.59877L18.8107 1.47745C17.9151 0.581912 16.6434 0.676791 15.7988 0.874453C14.8475 1.09711 13.785 1.59114 12.705 2.26611L14.295 4.81011ZM16.6894 3.59877C16.3947 3.30413 16.5976 3.09549 16.4786 3.63498C16.3813 4.07621 16.1197 4.72987 15.6473 5.56565C14.7132 7.21826 13.1173 9.29954 11.0644 11.3524L13.1857 13.4738C15.3828 11.2767 17.1618 8.98296 18.259 7.04182C18.8022 6.08072 19.2203 5.13282 19.4082 4.28108C19.5744 3.52761 19.6678 2.33459 18.8107 1.47745L16.6894 3.59877ZM11.0644 11.3524C9.00506 13.4118 6.92123 15.0389 5.26901 15.9871C4.43197 16.4675 3.78688 16.7263 3.35959 16.8167C2.8532 16.9238 3.08636 16.7251 3.36497 17.0347L1.13508 19.0416C1.97619 19.9761 3.19373 19.9181 3.9803 19.7517C4.84598 19.5687 5.80245 19.1399 6.76229 18.5891C8.70382 17.4748 10.995 15.6645 13.1857 13.4738L11.0644 11.3524ZM3.31068 16.9774C3.58122 17.248 3.36134 17.3948 3.50743 16.7706C3.62852 16.2532 3.947 15.5031 4.52202 14.5831L1.97803 12.9931C1.30305 14.0731 0.809027 15.1355 0.586367 16.0869C0.388705 16.9315 0.293826 18.2032 1.18936 19.0988L3.31068 16.9774Z" fill="#006DF9" mask="url(#path-4-inside-2_5340_6223)"/></svg>