<svg xmlns="http://www.w3.org/2000/svg" viewBox="0 0 64 64"><style type="text/css"> .tl12_st0{fill:#CB2228;} .tl12_st1{fill:url(#tl12_SVGID_1_);} .tl12_st2{fill:url(#tl12_SVGID_00000176745445134707889050000014756613320659911828_);} .tl12_st3{fill:url(#tl12_SVGID_00000170960843925534770130000009366726372466518666_);} .tl12_st4{fill:#AF1D23;} .tl12_st5{fill:url(#tl12_SVGID_00000102512595724974226190000004752559570672931714_);} </style><path class="tl12_st0" d="M25.5 30.8C25.5 30.8 25.5 30.8 25.5 30.8c-5 6.7 -13.2 14.4 -25.5 16.6V6.6C0 2.9 2.9 0 6.6 0h11.8c-.3 2.3 -.5 4.5 -.5 6.6c0 .2 0 .4 0 .6c0 .3 0 .7 0 1c0 .1 0 .2 0 .4c0 .3 0 .7 .1 1c0 .1 0 .3 0 .4c0 .2 0 .3 0 .5c0 .1 0 .2 0 .2c0 .1 0 .2 0 .3c0 .2 0 .3 .1 .5c0 .2 0 .4 .1 .6c0 .1 0 .3 .1 .4c0 .2 0 .3 .1 .5c0 .2 0 .3 .1 .5c0 0 0 .1 0 .1c0 .3 .1 .5 .1 .8c0 .1 0 .2 .1 .3c0 .1 0 .2 .1 .3c0 .1 .1 .3 .1 .4c0 .2 .1 .3 .1 .5c0 .2 .1 .3 .1 .5c0 .1 .1 .3 .1 .4c.1 .2 .1 .5 .2 .7c.1 .4 .2 .8 .3 1.2c.1 .2 .1 .5 .2 .7c.1 .4 .2 .7 .4 1.1c0 .1 .1 .2 .1 .3c.5 1.5 1.1 2.9 1.7 4.1c0 .1 .1 .2 .1 .2c.4 .9 .9 1.7 1.3 2.5c.1 .1 .1 .2 .2 .3c.2 .3 .3 .5 .5 .8c.1 .1 .1 .2 .2 .2c0 0 0 .1 .1 .1c0 0 0 0 0 .1c0 0 0 0 0 0c.1 .1 .1 .2 .2 .3c.2 .3 .4 .6 .6 .9C25.3 30.4 25.4 30.6 25.5 30.8zM33.6 26.9c-.7 0 -1.3 -.1 -1.9 -.1c0 0 -.1 0 -.1 0c-2.8 -3.7 -8.4 -12.9 -5.7 -26.8h2.9C27.1 9.4 28.9 19.1 33.6 26.9zM64 6.6v24.9c-1.1 -.4 -2.3 -.8 -3.5 -1.2c-5.5 -1.7 -11.6 -2.6 -18.2 -2.6C37 21.6 33.2 11.1 35.5 0h21.9C61.1 0 64 2.9 64 6.6zM61.7 37.7c.8 .3 1.5 .6 2.3 1v1.1c-1 -1 -2 -1.9 -3.1 -2.7C61.2 37.3 61.5 37.5 61.7 37.7zM.4 54.6c-.1 0 -.2 0 -.4 .1v0C.1 54.7 .2 54.7 .4 54.6zM28.2 39.1c1.7 -1.8 3 -3.6 4.1 -5.1c.4 0 .9 0 1.3 .1C32.1 35.8 30.3 37.5 28.2 39.1zM64 50.8v6.6c0 3.6 -2.9 6.6 -6.6 6.6H6.6C2.9 64 0 61.1 0 57.4v-2.6l1.3 0c21.2 0 34 -12 40 -19.5C48.5 37.1 57.3 41.3 64 50.8z"/><radialGradient id="tl12_SVGID_1_" cx="28.0584" cy="13.4211" r="9.8077" gradientUnits="userSpaceOnUse"><stop offset="0" style="stop-color:#B2B4B6"/><stop offset="1" style="stop-color:#FFFFFF"/></radialGradient><path class="tl12_st1" d="M30.9 26.8c-2.8 -3.7 -8 -12.8 -5.8 -26.8h.7c-2.6 13.9 3 23.1 5.7 26.8h0C31.3 26.8 31.1 26.8 30.9 26.8z"/><radialGradient id="tl12_SVGID_00000003080406924109926780000015049194100399712396_" cx="32" cy="44.1046" r="23.8361" gradientUnits="userSpaceOnUse"><stop offset="0" style="stop-color:#B2B4B6"/><stop offset="1" style="stop-color:#FFFFFF"/></radialGradient><path style="fill:url(#tl12_SVGID_00000003080406924109926780000015049194100399712396_);" d="M64 49.9v1c-6.7 -9.5 -15.5 -13.7 -22.7 -15.5c-.7 -.2 -1.3 -.3 -2 -.4c-.2 0 -.3 -.1 -.5 -.1c0 0 0 0 0 0c-.1 0 -.3 -.1 -.4 -.1c0 0 0 0 -.1 0c-.1 0 -.3 -.1 -.4 -.1c-.2 0 -.3 -.1 -.5 -.1c-.3 0 -.6 -.1 -.9 -.1c-.8 -.1 -1.5 -.2 -2.1 -.2c-.1 0 -.3 0 -.4 0c-.1 0 -.3 0 -.4 0c-.5 0 -.9 -.1 -1.3 -.1c-1.1 1.5 -2.4 3.3 -4.1 5.1c-.3 .3 -.6 .6 -.8 .9c-.6 .6 -1.2 1.2 -1.8 1.8c-.1 .1 -.2 .2 -.4 .3c-.2 .2 -.4 .3 -.6 .5c0 0 0 0 0 0c-.4 .3 -.8 .7 -1.2 1c-.2 .2 -.4 .3 -.6 .5c-.1 .1 -.3 .2 -.4 .3c-1.2 1 -2.5 1.9 -3.8 2.8c-.5 .3 -.9 .6 -1.4 .9c-.4 .3 -.9 .5 -1.3 .8c-.3 .2 -.6 .3 -.9 .5c-.3 .2 -.6 .3 -.9 .5c-.2 .1 -.3 .2 -.5 .2c-.3 .2 -.6 .3 -1 .5c-.3 .2 -.7 .3 -1 .5c-.3 .1 -.7 .3 -1 .4c-.5 .2 -1.1 .4 -1.7 .7c-.1 0 -.2 .1 -.4 .1c-.4 .1 -.8 .3 -1.1 .4C7.4 53 7.3 53 7.2 53c-.2 .1 -.3 .1 -.5 .2c0 0 0 0 0 0c-.2 .1 -.5 .1 -.7 .2c-.2 .1 -.5 .1 -.7 .2C4.5 53.8 3.8 54 3 54.1c-.3 .1 -.5 .1 -.8 .2c-.3 .1 -.5 .1 -.8 .1c0 0 0 0 0 0c-.2 0 -.5 .1 -.7 .1c-.1 0 -.2 0 -.4 .1c-.1 0 -.2 0 -.4 .1v-.6c16.5 -2.6 26.7 -13.5 31.8 -20.6C41.3 33.9 54.7 37 64 49.9z"/><radialGradient id="tl12_SVGID_00000097473363327187025980000000945430451803205540_" cx="47.7797" cy="34.6308" r="14.1196" gradientUnits="userSpaceOnUse"><stop offset="0" style="stop-color:#FFFFFF"/><stop offset="1" style="stop-color:#B2B4B6"/></radialGradient><path style="fill:url(#tl12_SVGID_00000097473363327187025980000000945430451803205540_);" d="M64 39.7v.2C53.1 29.5 39.7 27.2 31.7 27c0 0 -.1 -.1 -.1 -.1c0 0 .1 0 .1 0c.6 0 1.3 .1 1.9 .1c.1 0 .3 0 .4 0c.1 0 .3 0 .4 0c.2 0 .5 0 .7 .1c.1 0 .1 0 .2 0c.2 0 .4 0 .6 .1c.1 0 .2 0 .3 0c.1 0 .3 0 .4 .1c.1 0 .3 0 .4 .1c.6 .1 1.1 .2 1.7 .2c.2 0 .4 .1 .6 .1c0 0 0 0 0 0c.3 .1 .6 .1 1 .2c1.4 .3 2.8 .6 4.3 1c.1 0 .3 .1 .4 .1c.1 0 .2 0 .3 .1c.3 .1 .6 .2 .9 .3c.1 0 .3 .1 .4 .1c.1 0 .3 .1 .4 .1c.3 .1 .6 .2 .8 .3c.3 .1 .7 .3 1 .4c.2 .1 .4 .1 .5 .2c.1 .1 .3 .1 .4 .2c.3 .1 .6 .2 .9 .4c1 .4 2 .9 3 1.4c.1 .1 .3 .1 .4 .2c.1 .1 .3 .2 .4 .2c.1 .1 .2 .1 .4 .2c.1 .1 .3 .2 .4 .2c.1 .1 .3 .1 .4 .2c.6 .4 1.3 .8 1.9 1.2c.1 .1 .3 .2 .4 .3c.2 .1 .4 .2 .5 .4c.3 .2 .6 .4 .9 .6c.2 .1 .3 .2 .5 .3c0 0 0 0 0 0c.1 .1 .3 .2 .4 .3c.2 .1 .4 .3 .6 .4C62 37.9 63 38.8 64 39.7z"/><path class="tl12_st4" d="M60.5 30.3c-5.5 -1.7 -11.6 -2.6 -18.2 -2.6C37 21.6 33.2 11.1 35.5 0h-6.8c-1.6 9.4 .2 19.1 4.9 26.9c.1 0 .3 0 .4 0c.4 0 .8 .1 1.3 .1c.2 0 .4 0 .6 .1c.1 0 .2 0 .3 0c.1 0 .3 0 .4 .1c.1 0 .3 0 .4 .1c.6 .1 1.1 .2 1.7 .2c.2 0 .4 .1 .6 .1c0 0 0 0 0 0c.3 .1 .6 .1 1 .2c1.4 .3 2.8 .6 4.3 1c.1 0 .3 .1 .4 .1c.1 0 .2 0 .3 .1c.3 .1 .6 .2 .9 .3c.1 0 .3 .1 .4 .1c.1 0 .3 .1 .4 .1c.3 .1 .6 .2 .8 .3c.3 .1 .7 .3 1 .4c.2 .1 .4 .1 .5 .2c.1 .1 .3 .1 .4 .2c.3 .1 .6 .2 .9 .4c1 .4 2 .9 3 1.4c.1 .1 .3 .1 .4 .2c.1 .1 .3 .2 .4 .2c.1 .1 .2 .1 .4 .2c.1 .1 .3 .2 .4 .2c.1 .1 .3 .1 .4 .2c.6 .4 1.3 .8 1.9 1.2c.1 .1 .3 .2 .4 .3c.2 .1 .4 .2 .5 .4c.3 .2 .6 .4 .9 .6c.2 .1 .3 .2 .5 .3c0 0 0 0 0 0c.1 .1 .3 .2 .4 .3c.2 .1 .4 .3 .6 .4c.3 .2 .5 .4 .8 .6c.8 .3 1.5 .6 2.3 1v-7.2C62.9 31 61.7 30.6 60.5 30.3zM39.3 34.9c-.2 0 -.3 -.1 -.5 -.1c0 0 0 0 0 0c-.1 0 -.3 -.1 -.4 -.1c0 0 0 0 -.1 0c-.1 0 -.3 -.1 -.4 -.1c-.2 0 -.3 -.1 -.5 -.1c-.3 0 -.6 -.1 -.9 -.1c-.8 -.1 -1.5 -.2 -2.1 -.2c-.1 0 -.3 0 -.4 0c-.1 0 -.3 0 -.4 0c-1.5 1.7 -3.3 3.4 -5.4 5c0 0 0 0 0 0c-.3 .3 -.5 .6 -.8 .9c-.6 .6 -1.2 1.2 -1.8 1.8c-.1 .1 -.2 .2 -.4 .3c-.2 .2 -.4 .3 -.6 .5c0 0 0 0 0 0c-.4 .3 -.8 .7 -1.2 1c-.2 .2 -.4 .3 -.6 .5c-.1 .1 -.3 .2 -.4 .3c-1.2 1 -2.5 1.9 -3.8 2.8c-.5 .3 -.9 .6 -1.4 .9c-.4 .3 -.9 .5 -1.3 .8c-.3 .2 -.6 .3 -.9 .5c-.3 .2 -.6 .3 -.9 .5c-.2 .1 -.3 .2 -.5 .2c-.3 .2 -.6 .3 -1 .5c-.3 .2 -.7 .3 -1 .5c-.3 .1 -.7 .3 -1 .4c-.5 .2 -1.1 .4 -1.7 .7c-.1 0 -.2 .1 -.4 .1c-.4 .1 -.8 .3 -1.1 .4C7.4 53 7.3 53 7.2 53c-.2 .1 -.3 .1 -.5 .2c0 0 0 0 0 0c-.2 .1 -.5 .1 -.7 .2c-.2 .1 -.5 .1 -.7 .2C4.5 53.8 3.8 54 3 54.1c-.3 .1 -.5 .1 -.8 .2c-.3 .1 -.5 .1 -.8 .1c0 0 0 0 0 0c-.2 0 -.5 .1 -.7 .1c-.1 0 -.2 0 -.4 .1c-.1 0 -.2 0 -.4 .1v.1l1.3 0c21.2 0 34 -12 40 -19.5C40.6 35.1 40 35 39.3 34.9z"/><radialGradient id="tl12_SVGID_00000172434896230469840130000010348522205175824279_" cx="32" cy="32.2339" r="32.0772" gradientUnits="userSpaceOnUse"><stop offset="0" style="stop-color:#FFFFFF"/><stop offset="1" style="stop-color:#B2B4B6"/></radialGradient><path style="fill:url(#tl12_SVGID_00000172434896230469840130000010348522205175824279_);" d="M64 39.7v10.1c-9.3 -12.9 -22.7 -16 -32.2 -16.3c-5 7.1 -15.2 18 -31.8 20.6v-6.7c12.3 -2.2 20.5 -9.9 25.5 -16.5c0 0 0 0 0 0c-.1 -.2 -.2 -.3 -.4 -.5c-.2 -.3 -.4 -.6 -.6 -.9c-.1 -.1 -.1 -.2 -.2 -.3c0 0 0 0 0 0c0 0 0 0 0 -.1c0 0 -.1 -.1 -.1 -.1c-.1 -.1 -.1 -.2 -.2 -.2c-.2 -.2 -.3 -.5 -.5 -.8c-.1 -.1 -.1 -.2 -.2 -.3c-.4 -.8 -.9 -1.6 -1.3 -2.5c0 -.1 -.1 -.2 -.1 -.2c-.6 -1.2 -1.2 -2.6 -1.7 -4.1c0 -.1 -.1 -.2 -.1 -.3c-.1 -.4 -.2 -.7 -.4 -1.1c-.1 -.2 -.1 -.5 -.2 -.7c-.1 -.4 -.2 -.8 -.3 -1.2c-.1 -.2 -.1 -.5 -.2 -.7c0 -.1 -.1 -.3 -.1 -.4c0 -.2 -.1 -.3 -.1 -.5c0 -.2 -.1 -.3 -.1 -.5c0 -.1 -.1 -.3 -.1 -.4c0 -.1 0 -.2 -.1 -.3c0 -.1 0 -.2 -.1 -.3c0 -.3 -.1 -.5 -.1 -.8c0 0 0 -.1 0 -.1c0 -.2 -.1 -.3 -.1 -.5c0 -.2 0 -.3 -.1 -.5c0 -.1 0 -.3 -.1 -.4c0 -.2 0 -.4 -.1 -.6c0 -.2 0 -.3 -.1 -.5c0 -.1 0 -.2 0 -.3c0 -.1 0 -.2 0 -.2c0 -.2 0 -.3 0 -.5c0 -.1 0 -.3 0 -.4c0 -.3 0 -.7 -.1 -1c0 -.1 0 -.2 0 -.4c0 -.3 0 -.7 0 -1c0 -.2 0 -.4 0 -.6c0 -2.1 .1 -4.3 .5 -6.6h6.8c-2.2 14 3 23.1 5.8 26.8c.2 0 .4 0 .7 0h0c0 0 .1 0 .1 0c.6 0 1.3 .1 1.9 .1c.1 0 .3 0 .4 0c.1 0 .3 0 .4 0c.2 0 .5 0 .7 .1c.1 0 .1 0 .2 0c.2 0 .4 0 .6 .1c.1 0 .2 0 .3 0c.1 0 .3 0 .4 .1c.1 0 .3 0 .4 .1c.6 .1 1.1 .2 1.7 .2c.2 0 .4 .1 .6 .1c0 0 0 0 0 0c.3 .1 .6 .1 1 .2c1.4 .3 2.8 .6 4.3 1c.1 0 .3 .1 .4 .1c.1 0 .2 0 .3 .1c.3 .1 .6 .2 .9 .3c.1 0 .3 .1 .4 .1c.1 0 .3 .1 .4 .1c.3 .1 .6 .2 .8 .3c.3 .1 .7 .3 1 .4c.2 .1 .4 .1 .5 .2c.1 .1 .3 .1 .4 .2c.3 .1 .6 .2 .9 .4c1 .4 2 .9 3 1.4c.1 .1 .3 .1 .4 .2c.1 .1 .3 .2 .4 .2c.1 .1 .2 .1 .4 .2c.1 .1 .3 .2 .4 .2c.1 .1 .3 .1 .4 .2c.6 .4 1.3 .8 1.9 1.2c.1 .1 .3 .2 .4 .3c.2 .1 .4 .2 .5 .4c.3 .2 .6 .4 .9 .6c.2 .1 .3 .2 .5 .3c0 0 0 0 0 0c.1 .1 .3 .2 .4 .3c.2 .1 .4 .3 .6 .4C62 37.9 63 38.8 64 39.7z"/></svg>
