<svg xmlns="http://www.w3.org/2000/svg" version="1.1" viewBox="0 0 512 512"><path d="M0 0 C8.83413133 4.72789621 12.88570996 10.96962988 16 20.3125 C16.95791981 29.75036568 15.13322185 37.69557166 9.1875 45.1875 C3.89066513 50.81538705 -2.3459952 53.48921209 -10 54.3125 C-18.49041851 54.3125 -26.09608366 51.89980856 -32.390625 46.125 C-36.32239804 41.69698376 -39 37.27013616 -39 31.3125 C-57.15 31.3125 -75.3 31.3125 -94 31.3125 C-94 38.9025 -94 46.4925 -94 54.3125 C-89.67841797 54.24289063 -89.67841797 54.24289063 -85.26953125 54.171875 C-82.43629716 54.14055692 -79.60308337 54.11633917 -76.76977539 54.09277344 C-74.82144341 54.07282849 -72.87316994 54.04566243 -70.92504883 54.01074219 C-56.05763979 53.7511828 -41.821239 53.92273916 -30 64.3125 C-22.78579552 71.78032886 -19.61524343 79.48449963 -19.73632812 89.85742188 C-19.76146484 90.68822266 -19.78660156 91.51902344 -19.8125 92.375 C-19.82603516 93.24060547 -19.83957031 94.10621094 -19.85351562 94.99804688 C-19.8884067 97.10314174 -19.94219335 99.20790974 -20 101.3125 C-18.47415283 101.29678955 -18.47415283 101.29678955 -16.91748047 101.28076172 C-13.07441858 101.24403891 -9.23137152 101.22141329 -5.38818359 101.20263672 C-3.73776628 101.19269638 -2.087366 101.17913937 -0.43701172 101.16162109 C29.39300917 100.85334732 54.51530925 108.5416061 76.375 129.3125 C94.39100694 148.27076672 102.31301078 173.56024912 102 199.3125 C103.09957031 199.26609375 104.19914062 199.2196875 105.33203125 199.171875 C116.26037071 198.84619191 125.40087655 199.35175429 134.3125 206.4375 C142.24923818 214.06522583 146.93725282 224.42484196 147.38768005 235.42723083 C147.40822466 237.25533501 147.4129155 239.0836671 147.40405273 240.91186523 C147.41434761 242.42373917 147.41434761 242.42373917 147.42485046 243.96615601 C147.44301627 247.26794892 147.43929561 250.56926203 147.43359375 253.87109375 C147.4381603 256.18457695 147.44346728 258.4980588 147.44947815 260.8115387 C147.45838912 265.64891081 147.45600884 270.48611764 147.44604492 275.32348633 C147.43455557 281.50129862 147.45477717 287.67853927 147.48396206 293.85627651 C147.50236786 298.63059572 147.50202287 303.40477902 147.49632454 308.17912483 C147.49617188 310.45594141 147.50217047 312.73276753 147.51461601 315.00955009 C147.52960759 318.20130466 147.51878869 321.39201675 147.50170898 324.58374023 C147.51137695 325.5103093 147.52104492 326.43687836 147.53100586 327.39152527 C147.40544185 338.68058497 142.97605245 348.73443735 135.41015625 357.0625 C128.05286195 363.98701228 120.46059592 365.57889085 110.64453125 365.4140625 C109.39524841 365.40306519 109.39524841 365.40306519 108.12072754 365.3918457 C106.08040226 365.3728251 104.04017562 365.34368434 102 365.3125 C102.00444122 365.99107056 102.00888245 366.66964111 102.01345825 367.36877441 C102.05811777 374.50803495 102.08804104 381.64725505 102.10986328 388.78662109 C102.11870509 391.441976 102.13343775 394.09710755 102.15087891 396.75244141 C102.34484028 427.06746328 100.49102729 454.32300464 80 478.3125 C79.51273437 478.93125 79.02546875 479.55 78.5234375 480.1875 C77.40100708 481.60530685 76.20779548 482.96667075 75 484.3125 C74.34 484.3125 73.68 484.3125 73 484.3125 C73 484.9725 73 485.6325 73 486.3125 C56.62998942 501.39309194 34.57835367 510.65316735 12.33822632 510.57992554 C10.79876073 510.58672221 10.79876073 510.58672221 9.22819483 510.59365618 C5.81402978 510.60624307 2.40002542 510.60468349 -1.01416016 510.60302734 C-3.47240401 510.60901621 -5.93064598 510.61582258 -8.3888855 510.62338257 C-14.35930288 510.63918562 -20.3296579 510.64548945 -26.30009039 510.64660732 C-31.15860653 510.64756075 -36.01710975 510.65168569 -40.8756218 510.65800858 C-54.68055343 510.675606 -68.48545408 510.68484997 -82.290397 510.68334763 C-83.03326228 510.68326772 -83.77612756 510.6831878 -84.54150391 510.68310547 C-85.65717832 510.68298283 -85.65717832 510.68298283 -86.7953916 510.68285771 C-98.83760596 510.68204556 -110.87969502 510.70116921 -122.92187317 510.7293822 C-135.31625191 510.75818884 -147.7105697 510.77191819 -160.10498273 510.77019465 C-167.05157543 510.76953336 -173.99803681 510.77491029 -180.94459915 510.79655075 C-187.48314777 510.81679111 -194.02146796 510.81600979 -200.56004715 510.80151749 C-202.94959927 510.79943685 -205.33916898 510.80408542 -207.7286911 510.8162384 C-232.814655 510.93548384 -253.90568989 505.86587671 -274 490.3125 C-275.19689453 489.39210938 -275.19689453 489.39210938 -276.41796875 488.453125 C-294.3109815 473.63201001 -305.3344373 451.37108215 -307.55078125 428.3671875 C-308.11252469 421.83118297 -308.12609103 415.32570451 -308.09765625 408.76953125 C-308.0962413 407.51992111 -308.09482635 406.27031097 -308.09336853 404.98283386 C-308.08875602 401.69991819 -308.07981038 398.41705398 -308.06866455 395.13415527 C-308.05833788 391.76847963 -308.05384708 388.40279638 -308.04882812 385.03710938 C-308.0378609 378.46221988 -308.02116975 371.88736414 -308 365.3125 C-309.31137939 365.33062744 -310.62275879 365.34875488 -311.97387695 365.36743164 C-313.70784157 365.38209147 -315.44180995 365.3963098 -317.17578125 365.41015625 C-318.46989929 365.42979431 -318.46989929 365.42979431 -319.79016113 365.4498291 C-329.30928846 365.50685718 -335.2060158 362.78893939 -342.1484375 356.2890625 C-350.77306215 347.08218471 -353.46357346 337.02282108 -353.40405273 324.62133789 C-353.41091599 323.60366837 -353.41777924 322.58599884 -353.42485046 321.53749084 C-353.44301858 318.20323379 -353.43929527 314.86945175 -353.43359375 311.53515625 C-353.43816019 309.19925282 -353.44346713 306.86335072 -353.44947815 304.52745056 C-353.45838957 299.64300055 -353.45600831 294.75871421 -353.44604492 289.87426758 C-353.43455551 283.63592323 -353.45477706 277.39814495 -353.48396206 271.15987492 C-353.50236669 266.33923291 -353.5020231 261.51872552 -353.49632454 256.69805717 C-353.49617186 254.39891198 -353.50217165 252.09975735 -353.51461601 249.80064583 C-353.52960533 246.57776159 -353.51879026 243.35591006 -353.50170898 240.13305664 C-353.51137695 239.19713684 -353.52104492 238.26121704 -353.53100586 237.29693604 C-353.41660541 226.91367508 -349.73830242 217.24872285 -343 209.3125 C-333.97724806 200.56213302 -325.7262608 198.98565459 -313.58789062 199.15844727 C-311.72501292 199.19985842 -309.8624433 199.2547664 -308 199.3125 C-308.05220703 198.20068359 -308.05220703 198.20068359 -308.10546875 197.06640625 C-308.74232267 172.2897563 -300.07827634 149.40195867 -283.7578125 130.75 C-266.81039395 112.96910185 -244.49339187 102.2026934 -219.81311035 101.22595215 C-217.62337268 101.19834149 -215.43594388 101.19959088 -213.24609375 101.21484375 C-212.06660912 101.21696617 -212.06660912 101.21696617 -210.86329651 101.21913147 C-208.38798985 101.22466328 -205.91277863 101.23720225 -203.4375 101.25 C-201.74414194 101.25502384 -200.05078245 101.25958519 -198.35742188 101.26367188 C-194.2382453 101.27461022 -190.11913875 101.29182638 -186 101.3125 C-186.0314209 100.73918945 -186.0628418 100.16587891 -186.09521484 99.57519531 C-186.7101933 86.63729409 -187.01853257 76.10656103 -177.87890625 65.95703125 C-167.99201345 56.54991834 -157.28156086 53.95922157 -143.93359375 54.1171875 C-143.01409439 54.1200174 -142.09459503 54.12284729 -141.14723206 54.12576294 C-138.24384907 54.13685416 -135.34078791 54.16193737 -132.4375 54.1875 C-130.45508262 54.19754412 -128.47266034 54.20666745 -126.49023438 54.21484375 C-121.65993601 54.23504575 -116.83032329 54.27421474 -112 54.3125 C-112 41.1125 -112 27.9125 -112 14.3125 C-87.25 14.3125 -62.5 14.3125 -37 14.3125 C-36.34 12.6625 -35.68 11.0125 -35 9.3125 C-27.29481283 -1.9088097 -12.35895071 -5.04743701 0 0 Z M-22.8125 13.5625 C-25.96179007 17.52160752 -27.78142801 20.62637321 -28.4375 25.6875 C-27.71822415 31.64721417 -25.75668504 35.75543826 -21.25 39.75 C-15.88572577 42.32897799 -12.04813617 42.9373551 -6.3125 41.1875 C-2.02182618 38.7588167 0.91394122 36.27774923 3.3125 31.9375 C4.88026112 25.95150299 4.20102824 21.44271329 1.265625 16.109375 C-1.36379641 12.37624583 -4.59948221 10.73874455 -8.875 9.4375 C-14.39755297 9.21659788 -18.45661898 10.07779519 -22.8125 13.5625 Z M-166.0625 77.9375 C-170.94658184 86.44525545 -169 88.52580304 -169 101.3125 C-125.44 101.3125 -81.88 101.3125 -37 101.3125 C-36.14532718 86.9917931 -36.14532718 86.9917931 -42.1875 75.625 C-48.77405903 70.2093848 -54.49717207 68.71726707 -62.92919922 68.77905273 C-64.36989273 68.76612938 -64.36989273 68.76612938 -65.83969116 68.75294495 C-68.99496904 68.73035865 -72.1493533 68.7370113 -75.3046875 68.74609375 C-77.51132468 68.74085442 -79.71795962 68.73457681 -81.92459106 68.72731018 C-86.54277099 68.71691906 -91.16064256 68.72144836 -95.77880859 68.73608398 C-101.67891396 68.75325731 -107.57804412 68.72978678 -113.4780407 68.69459438 C-118.0336037 68.67256652 -122.58893539 68.67407518 -127.14453506 68.6823597 C-129.31891066 68.68317649 -131.4933037 68.6763654 -133.66762924 68.66158867 C-136.71635475 68.64404626 -139.76335362 68.658767 -142.81201172 68.68139648 C-143.69856445 68.66970428 -144.58511719 68.65801208 -145.49853516 68.64596558 C-153.48184549 68.76571475 -161.17792179 71.31072035 -166.0625 77.9375 Z M-273 145.3125 C-288.30293025 164.04942114 -290.45505557 183.70540362 -290.38818359 206.96459961 C-290.39225419 209.34771464 -290.3975988 211.73082778 -290.40411377 214.11393738 C-290.41773571 220.55609836 -290.41250965 226.99811445 -290.40297651 233.44027781 C-290.39762325 237.47124891 -290.39865644 241.50220172 -290.4014473 245.53317451 C-290.401907 246.20455917 -290.40236669 246.87594382 -290.40284032 247.56767346 C-290.4037996 248.93204129 -290.40477225 250.29640911 -290.4057581 251.66077692 C-290.41429179 264.42389431 -290.40451006 277.18694683 -290.388357 289.95005358 C-290.37495872 300.87420556 -290.37728178 311.79826186 -290.39111328 322.72241211 C-290.40721027 335.44160218 -290.41346478 348.16073553 -290.40427649 360.87993437 C-290.40332096 362.23929281 -290.40237784 363.59865126 -290.4014473 364.95800972 C-290.40098447 365.62664782 -290.40052164 366.29528591 -290.40004479 366.98418577 C-290.39746699 371.67008178 -290.40194833 376.35593058 -290.40888596 381.04182243 C-290.41759164 387.3628993 -290.41146802 393.6837966 -290.39420319 400.0048542 C-290.39025738 402.31622648 -290.39133945 404.62761403 -290.39799118 406.9389801 C-290.45697696 429.52909564 -287.69325276 448.19365267 -273 466.3125 C-272.21882813 467.3025 -271.43765625 468.2925 -270.6328125 469.3125 C-258.12929407 483.55983257 -239.21312142 492.13250933 -220.4352634 493.49916148 C-217.84835424 493.57253245 -215.26819049 493.5889296 -212.68026733 493.57992554 C-211.70281071 493.58445665 -210.72535409 493.58898776 -209.71827757 493.59365618 C-206.47538432 493.60621593 -203.23266082 493.60468528 -199.98974609 493.60302734 C-197.65120226 493.60901791 -195.31266039 493.61582467 -192.97412109 493.62338257 C-186.64324378 493.64099726 -180.31242058 493.64573608 -173.98152113 493.64701414 C-169.35286503 493.64867864 -164.72422084 493.65448519 -160.09556896 493.6606871 C-147.63201363 493.67727511 -135.16848678 493.6847744 -122.70492081 493.68334763 C-121.99872761 493.68326772 -121.2925344 493.6831878 -120.56494141 493.68310547 C-119.85787366 493.68302371 -119.1508059 493.68294195 -118.42231186 493.68285771 C-106.97575426 493.68204564 -95.52932851 493.70116854 -84.08280902 493.7293822 C-72.29520999 493.75820442 -60.50767507 493.77191735 -48.72003996 493.77019465 C-42.11604823 493.7695339 -35.51217789 493.77528321 -28.90821457 493.79655075 C-22.69136647 493.81602615 -16.47480863 493.81599414 -10.25794983 493.80151749 C-7.98814593 493.79943972 -5.7183234 493.804068 -3.44855118 493.8162384 C13.71322123 493.90223149 29.63908207 492.72781769 45 484.3125 C45.8765625 483.84457031 46.753125 483.37664062 47.65625 482.89453125 C65.05805803 472.76847916 76.58359972 456.56381417 82 437.3125 C83.65337343 430.4845105 84.29004946 424.02974709 84.26069641 417.01690674 C84.26452196 416.03002074 84.26834751 415.04313474 84.27228898 414.02634311 C84.28254208 410.74569674 84.27864148 407.46522791 84.2746582 404.18457031 C84.27900898 401.82160278 84.28419335 399.45863665 84.29014587 397.09567261 C84.30350896 390.69468649 84.30411744 384.29375952 84.30158257 377.89276218 C84.30029605 373.8887794 84.30292725 369.88480225 84.30657005 365.88082123 C84.30746284 364.88146063 84.30746284 364.88146063 84.30837366 363.86191092 C84.30958551 362.5080925 84.31079964 361.15427408 84.31201603 359.80045566 C84.3228756 347.12320905 84.32073683 334.44598908 84.31463119 321.76874098 C84.30946577 310.19725211 84.32071038 298.62584752 84.33972941 287.05437532 C84.35915079 275.1459125 84.36735614 263.23748947 84.36360615 251.32901073 C84.36170032 244.65414447 84.36438914 237.97933951 84.37832069 231.30448151 C84.39093974 225.02367188 84.38891632 218.74303025 84.37590981 212.46222305 C84.37355321 210.16536272 84.37624558 207.86849042 84.38453293 205.57164383 C84.43387795 190.82494776 84.13454012 176.85771776 77.875 163.1875 C77.5749707 162.52282715 77.27494141 161.8581543 76.96582031 161.17333984 C68.11893495 142.40189042 52.33009932 129.5488512 33.16015625 122.609375 C25.03981585 119.9528881 17.15640396 119.01607455 8.64193726 119.04507446 C7.64829528 119.04054335 6.65465331 119.03601224 5.63090098 119.03134382 C2.3272906 119.01876266 -0.97615359 119.02031613 -4.27978516 119.02197266 C-6.65921234 119.01598342 -9.03863759 119.00917697 -11.4180603 119.00161743 C-17.19596393 118.98581744 -22.9738178 118.9795107 -28.75174196 118.97839268 C-33.45388908 118.97743908 -38.15602285 118.97331328 -42.85816574 118.96699142 C-56.22039736 118.94939489 -69.58259698 118.94014989 -82.94484027 118.94165237 C-83.66380958 118.94173228 -84.38277889 118.9418122 -85.12353516 118.94189453 C-85.84339318 118.94197629 -86.5632512 118.94205805 -87.3049231 118.94214229 C-98.95914767 118.9429544 -110.61324276 118.92383157 -122.2674299 118.8956178 C-134.26404457 118.86680671 -146.26059627 118.85308206 -158.25724638 118.85480535 C-164.98028141 118.8554665 -171.70316042 118.84970057 -178.42616653 118.82844925 C-184.75462219 118.80899049 -191.08279259 118.80899467 -197.4112587 118.82348251 C-199.7234082 118.82556234 -202.03557592 118.82091949 -204.3476944 118.8087616 C-230.63777277 118.67956183 -255.17988432 124.37090064 -273 145.3125 Z M-331.6875 221 C-338.54336856 227.85586856 -339.09259246 236.47841234 -339.14663696 245.72901917 C-339.14618378 246.49963181 -339.14573059 247.27024445 -339.14526367 248.06420898 C-339.14862228 248.8994812 -339.1519809 249.73475342 -339.15544128 250.59533691 C-339.16487411 253.33310467 -339.16689033 256.0708108 -339.16796875 258.80859375 C-339.171186 260.72616093 -339.17455042 262.64372788 -339.17805481 264.56129456 C-339.18402642 268.57154916 -339.18589667 272.58178228 -339.18530273 276.59204102 C-339.18520107 281.71396466 -339.19886636 286.83574982 -339.21607494 291.95764065 C-339.22722679 295.91519293 -339.22922098 299.87271202 -339.22869301 303.8302784 C-339.22986781 305.71799256 -339.23426136 307.60570773 -339.24202538 309.4934063 C-339.2518925 312.13950023 -339.24892119 314.78529712 -339.24291992 317.43139648 C-339.24853943 318.19998489 -339.25415894 318.9685733 -339.25994873 319.76045227 C-339.21216769 328.10853989 -337.76183245 335.37382986 -333 342.3125 C-325.20875321 349.70419567 -319.37579224 348.3125 -308 348.3125 C-308 304.7525 -308 261.1925 -308 216.3125 C-321.35967629 215.92791577 -321.35967629 215.92791577 -331.6875 221 Z M102 216.3125 C102 259.8725 102 303.4325 102 348.3125 C115.91728169 349.07406127 115.91728169 349.07406127 126.515625 342.88671875 C133.39787078 335.23318681 133.16105868 325.74852371 133.10107422 316.02587891 C133.09949814 315.13369156 133.09792206 314.24150421 133.09629822 313.32228088 C133.08885498 310.39447548 133.07285007 307.46682013 133.0546875 304.5390625 C133.04612417 303.02974718 133.04612417 303.02974718 133.03738785 301.48994064 C133.00594632 296.16803177 132.96707313 290.84623123 132.92285156 285.52441406 C132.87906104 280.04836375 132.86327239 274.57260056 132.85362053 269.09639931 C132.84071782 264.86497771 132.80598187 260.6339302 132.76550674 256.40269089 C132.75008339 254.38467371 132.74291695 252.36657486 132.74441147 250.3484993 C133.15320851 235.45792974 133.15320851 235.45792974 127 222.3125 C119.34915868 215.02016771 112.86350799 216.3125 102 216.3125 Z " transform="translate(359,1.6875)"/><path d="M0 0 C2.85912801 1.30156631 4.95128726 2.69064896 7.19213867 4.88574219 C7.78923141 5.46684753 8.38632416 6.04795288 9.00151062 6.64666748 C9.95015739 7.5872702 9.95015739 7.5872702 10.91796875 8.546875 C11.90474358 9.52010712 11.90474358 9.52010712 12.91145325 10.51300049 C14.29842328 11.88548291 15.68261557 13.26077729 17.06420898 14.63867188 C19.17824656 16.7407987 21.31020935 18.8235436 23.44335938 20.90625 C24.79020967 22.24363737 26.13595082 23.58214286 27.48046875 24.921875 C28.11897263 25.54084656 28.7574765 26.15981812 29.41532898 26.79754639 C32.92650916 30.34504155 34.95639506 32.75015664 35 38 C33.875 39.875 33.875 39.875 32 41 C29.75512695 41.41210938 29.75512695 41.41210938 27 41 C24.801378 39.23735209 22.97079345 37.55455769 21.04296875 35.53125 C20.22122917 34.69889832 20.22122917 34.69889832 19.38288879 33.84973145 C17.63899497 32.07788986 15.91330046 30.28945211 14.1875 28.5 C13.00701876 27.29443656 11.82539056 26.08999507 10.64257812 24.88671875 C7.74825784 21.93732409 4.87013765 18.97292495 2 16 C-1.91189274 17.57219198 -4.43800205 20.26110501 -7.28125 23.26171875 C-8.29774906 24.30835857 -9.31468938 25.35457 -10.33203125 26.40039062 C-11.92383104 28.0481425 -13.51140476 29.69947693 -15.09130859 31.35864258 C-16.62276569 32.9624277 -18.1693175 34.55032074 -19.71875 36.13671875 C-20.42360535 36.8896949 -20.42360535 36.8896949 -21.1427002 37.65788269 C-24.40196195 40.9669375 -24.40196195 40.9669375 -27.00488281 41.11083984 C-29.88063253 39.50968208 -31.89668808 37.43650922 -34.203125 35.08984375 C-34.6857782 34.60294571 -35.1684314 34.11604767 -35.66571045 33.61439514 C-37.2010085 32.0623455 -38.72552925 30.50017864 -40.25 28.9375 C-41.2909722 27.88147643 -42.3326314 26.82612962 -43.375 25.77148438 C-45.92467633 23.18878585 -48.46479196 20.59691118 -51 18 C-55.10108886 19.62156024 -57.83148167 22.5767703 -60.859375 25.6640625 C-61.683237 26.49216934 -61.683237 26.49216934 -62.52374268 27.33700562 C-64.27059293 29.09501815 -66.01034601 30.8598689 -67.75 32.625 C-68.93573591 33.8207708 -70.1219288 35.01608865 -71.30859375 36.2109375 C-74.21105085 39.13540253 -77.1071641 42.06601874 -80 45 C-85.62303757 40.32533663 -90.79741554 35.32234333 -95.9375 30.125 C-97.10635742 28.949375 -97.10635742 28.949375 -98.29882812 27.75 C-100.20154085 25.83561419 -102.10186171 23.91891966 -104 22 C-109.80891746 26.81867247 -115.13065552 32.01256408 -120.4375 37.375 C-121.26443359 38.20644531 -122.09136719 39.03789062 -122.94335938 39.89453125 C-124.96455531 41.9274104 -126.98336335 43.96259963 -129 46 C-132.21630141 44.47396585 -134.28769299 42.90199229 -136.75 40.3125 C-140.10783993 36.84776254 -143.60765464 33.70049061 -147.3359375 30.640625 C-149 29 -149 29 -149.8515625 26.921875 C-151.5597489 24.06327736 -153.91146956 23.92805267 -157 23 C-157.56920166 23.60062256 -158.13840332 24.20124512 -158.72485352 24.82006836 C-160.85773003 27.05561406 -163.00412646 29.27702199 -165.16040039 31.48999023 C-166.54284428 32.91720768 -167.90926309 34.35989125 -169.27539062 35.80273438 C-170.15517578 36.70185547 -171.03496094 37.60097656 -171.94140625 38.52734375 C-172.74263916 39.35999756 -173.54387207 40.19265137 -174.36938477 41.05053711 C-177.62206048 43.46098867 -179.99248329 43.81814928 -184 44 C-186 42.875 -186 42.875 -187 41 C-186.73897585 37.51967799 -185.96602468 35.94903702 -184 33 C-183.34 33 -182.68 33 -182 33 C-182 32.34 -182 31.68 -182 31 C-181.34 31 -180.68 31 -180 31 C-179.731875 30.360625 -179.46375 29.72125 -179.1875 29.0625 C-178 27 -178 27 -175 26 C-174.67 25.34 -174.34 24.68 -174 24 C-173 22 -173 22 -170 21 C-169.67 20.34 -169.34 19.68 -169 19 C-168 17 -168 17 -165 16 C-164.31558691 14.6756885 -163.65095851 13.34107242 -163 12 C-160.80166298 9.83150466 -158.39232708 7.94930355 -156 6 C-150.21958252 10.78993095 -144.95039345 15.96382182 -139.6875 21.3125 C-138.0895518 22.935873 -136.48940287 24.55708364 -134.88671875 26.17578125 C-134.18764404 26.88645752 -133.48856934 27.59713379 -132.76831055 28.3293457 C-131.09174765 30.07461428 -131.09174765 30.07461428 -129 31 C-128.731875 30.360625 -128.46375 29.72125 -128.1875 29.0625 C-127 27 -127 27 -124 26 C-123.70480469 25.40832031 -123.40960938 24.81664062 -123.10546875 24.20703125 C-121.66365101 21.32849052 -119.74547464 19.78514888 -117.3125 17.6875 C-113.03678749 13.93927017 -108.97261901 10.06459482 -105 6 C-99.37696243 10.67466337 -94.20258446 15.67765667 -89.0625 20.875 C-87.89364258 22.050625 -87.89364258 22.050625 -86.70117188 23.25 C-84.79845915 25.16438581 -82.89813829 27.08108034 -81 29 C-80.16855469 28.16855469 -79.33710938 27.33710938 -78.48046875 26.48046875 C-75.3203125 23.3203125 -72.16015625 20.16015625 -69 17 C-68.22910034 16.16722534 -68.22910034 16.16722534 -67.44262695 15.31762695 C-66 14 -66 14 -64 14 C-63.74992187 13.41734375 -63.49984375 12.8346875 -63.2421875 12.234375 C-61.83381118 9.70106917 -60.29348168 8.16481023 -58.125 6.25 C-57.44695312 5.63640625 -56.76890625 5.0228125 -56.0703125 4.390625 C-54 3 -54 3 -50 3 C-48.02983912 4.62142665 -46.33330552 6.20096156 -44.578125 8.03125 C-44.07327576 8.54175903 -43.56842651 9.05226807 -43.04827881 9.57824707 C-41.43922123 11.20968124 -39.84462978 12.85447267 -38.25 14.5 C-37.1610813 15.60898199 -36.07124781 16.71706654 -34.98046875 17.82421875 C-32.30958914 20.53918255 -29.65160025 23.266209 -27 26 C-20.81865131 20.89551178 -15.20177122 15.31705058 -9.5625 9.625 C-8.64017578 8.69816406 -7.71785156 7.77132813 -6.76757812 6.81640625 C-4.50941375 4.54654154 -2.25363058 2.27436462 0 0 Z " transform="translate(332,380)"/><path d="M0 0 C0.92425781 0.48919922 0.92425781 0.48919922 1.8671875 0.98828125 C9.15386127 5.44124856 13.87451745 13.90100488 16 22 C16.23678302 24.65692576 16.38131214 27.15950909 16.375 29.8125 C16.37338867 30.51810059 16.37177734 31.22370117 16.37011719 31.95068359 C16.23282118 37.80460835 15.06483576 42.06868986 12 47 C11.401875 48.051875 10.80375 49.10375 10.1875 50.1875 C4.87194213 57.02178869 -2.36087013 62.35297164 -11 64 C-22.10757873 64.86313669 -31.7028704 63.9298303 -40.4375 56.5625 C-41.64573222 55.39610067 -42.83622904 54.21076408 -44 53 C-44.7425 52.236875 -45.485 51.47375 -46.25 50.6875 C-51.7896853 42.18012615 -54.01428393 32.90172696 -52.3125 22.875 C-50.07769731 13.4177886 -45.21118847 5.5467108 -37 0.1875 C-25.23465029 -6.62166824 -11.79074257 -6.5678471 0 0 Z M-35.48828125 14.921875 C-39.32196789 20.19195586 -41.39500528 25.56557768 -41.0625 32.125 C-39.9165652 39.29270982 -36.54905423 44.03827932 -30.875 48.4375 C-24.97124099 52.65282987 -19.07107437 52.7563587 -12 52 C-5.06136395 49.75019983 -0.63438635 45.20441669 3 39 C5.0157881 32.95263571 5.12077772 25.57559092 2.5 19.6875 C-0.83657026 14.04008955 -5.55815603 9.96831744 -11.625 7.5625 C-20.96949996 6.00508334 -28.99619363 7.71853303 -35.48828125 14.921875 Z " transform="translate(354,240)"/><path d="M0 0 C4.92166745 2.05709871 8.43775279 6.63003308 12.03271484 10.43823242 C12.90734375 11.33993164 13.78197266 12.24163086 14.68310547 13.1706543 C16.83465371 15.39274511 18.97094203 17.62760456 21.09521484 19.87573242 C24.16107792 18.41504362 26.1923358 16.97623727 28.53271484 14.50073242 C30.56113241 12.40296725 32.48523934 10.56734096 34.78271484 8.75073242 C37.22083884 6.91547814 37.22083884 6.91547814 39.15771484 4.25073242 C41.12771234 1.83589678 42.12972519 0.74793526 45.09521484 -0.12426758 C48.22021484 0.06323242 48.22021484 0.06323242 51.09521484 0.87573242 C53.2755958 4.14630385 53.7276824 5.08092711 53.09521484 8.87573242 C51.47082194 10.61073574 49.81435353 12.23821072 48.09521484 13.87573242 C46.76281205 15.20217711 45.43362933 16.53186085 44.10693359 17.86401367 C40.10302734 21.86791992 36.09912109 25.87182617 32.09521484 29.87573242 C36.11681725 34.7155355 40.34572102 39.22967524 44.84521484 43.62573242 C45.98818376 44.74313156 47.12890218 45.86283847 48.26708984 46.98510742 C48.76305664 47.46947266 49.25902344 47.95383789 49.77001953 48.45288086 C51.09521484 49.87573242 51.09521484 49.87573242 53.09521484 52.87573242 C52.90771484 56.43823242 52.90771484 56.43823242 52.09521484 59.87573242 C49.09521484 61.87573242 49.09521484 61.87573242 46.21777344 61.78027344 C42.43877477 60.68557523 40.85983369 59.21712461 38.13427734 56.40307617 C37.25126953 55.50395508 36.36826172 54.60483398 35.45849609 53.6784668 C34.10304688 52.26017578 34.10304688 52.26017578 32.72021484 50.81323242 C31.78518846 49.85310575 30.84900109 48.89410825 29.91162109 47.9362793 C27.62782115 45.59361852 25.35650394 43.24009571 23.09521484 40.87573242 C19.77085264 41.98385316 19.16836152 42.7310987 17.03271484 45.37573242 C11.88039014 51.45986053 5.80960914 57.51483715 -0.90478516 61.87573242 C-4.02978516 61.75073242 -4.02978516 61.75073242 -6.90478516 60.87573242 C-8.90478516 57.87573242 -8.90478516 57.87573242 -8.96728516 55.18823242 C-7.42765025 50.38819417 -4.36816639 47.44544553 -0.90478516 43.87573242 C-0.14166016 43.05073242 0.62146484 42.22573242 1.40771484 41.37573242 C3.09521484 39.87573242 3.09521484 39.87573242 5.09521484 39.87573242 C5.32208984 39.33948242 5.54896484 38.80323242 5.78271484 38.25073242 C7.52561611 35.09691108 9.76408789 32.62488053 12.09521484 29.87573242 C11.49459229 29.30129395 10.89396973 28.72685547 10.27514648 28.13500977 C8.04167536 25.9870169 5.81988017 23.82777466 3.60522461 21.66040039 C2.17628714 20.26881919 0.73444707 18.89052695 -0.70751953 17.51245117 C-2.05620117 16.18793945 -2.05620117 16.18793945 -3.43212891 14.83666992 C-4.26478271 14.0302002 -5.09743652 13.22373047 -5.95532227 12.39282227 C-8.22740611 9.45917362 -8.74063019 7.55799082 -8.90478516 3.87573242 C-6.579448 0.09705954 -4.37107159 -0.74715758 0 0 Z " transform="translate(153.90478515625,239.124267578125)"/></svg>