<svg width="34" height="24" viewBox="0 0 34 24" fill="none" xmlns="http://www.w3.org/2000/svg"><path d="M30 0H4C1.79086 0 0 1.79086 0 4v16c0 2.2091 1.79086 4 4 4h26c2.2091 0 4-1.7909 4-4V4c0-2.20914-1.7909-4-4-4Z" fill="url(#a-payment-logo-CartesBancaires-)"></path><path fill-rule="evenodd" clip-rule="evenodd" d="M10.817 6c4.0605 0 6.6394 2.21163 6.8078 5.6391h-6.5936v.7076h6.5946C17.4651 15.7736 14.9082 18 10.817 18 6.7321 18 4 15.7475 4 12c0-3.63257 2.6275-6 6.817-6Zm15.8831 6.3467c.6194 0 1.1092.0549 1.469.1647.3598.11.69.3034.9906.5803.2733.2505.4806.5384.6218.8635.1458.3429.2185.6923.2185 1.0483 0 .3561-.0727.7054-.2185 1.0483-.1412.3252-.3485.6131-.6218.8637-.3006.2768-.6308.4701-.9906.5801-.3598.1098-.8496.1648-1.469.1648h-8.325v-5.3137h8.325Zm0-6.00714c.6194 0 1.1092.05476 1.469.16429.3598.10958.69.30253.9906.57871.2733.24979.4806.53695.6218.86126.1458.34193.2185.69055.2185 1.04548 0 .3551-.0727.70355-.2185 1.0455-.1412.3244-.3485.6114-.6218.8613-.3006.2762-.6308.4691-.9906.5786-.3598.1096-.8496.1644-1.469.1644h-8.325V6.33956h8.325Z" fill="#FFFFFE"></path><defs><linearGradient id="a-payment-logo-CartesBancaires-" x1="4.9e-7" y1="17.9792" x2="28.3269" y2="-2.01619" gradientUnits="userSpaceOnUse"><stop stop-color="#00A26C"></stop><stop offset=".486821" stop-color="#007DB5"></stop><stop offset="1" stop-color="#003877"></stop></linearGradient></defs></svg>