<svg xmlns="http://www.w3.org/2000/svg" version="1.1" viewBox="0 0 225 225"><path d="M30 0 H195 A30 30 0 0 1 225 30 V195 A30 30 0 0 1 195 225 H30 A30 30 0 0 1 0 195 V30 A30 30 0 0 1 30 0 Z" fill="#213AAF" transform="translate(0,0)"/><path d="M0 0 C1.93945312 -0.37231445 1.93945312 -0.37231445 4.28125 -0.36328125 C5.54388672 -0.36231445 5.54388672 -0.36231445 6.83203125 -0.36132812 C7.71246094 -0.34521484 8.59289062 -0.32910156 9.5 -0.3125 C10.38042969 -0.31572266 11.26085937 -0.31894531 12.16796875 -0.32226562 C18.73302968 -0.26697032 18.73302968 -0.26697032 21 2 C21.22705078 4.70556641 21.22705078 4.70556641 21.1953125 8.1015625 C21.18886719 9.31328125 21.18242188 10.525 21.17578125 11.7734375 C21.15064453 13.67996094 21.15064453 13.67996094 21.125 15.625 C21.11597656 16.90375 21.10695313 18.1825 21.09765625 19.5 C21.07402303 22.66685167 21.04107629 25.83333424 21 29 C22.28390625 28.95359375 23.5678125 28.9071875 24.890625 28.859375 C30.10019795 28.86345454 34.74520299 29.88505536 39.75 31.25 C40.57371094 31.45496094 41.39742188 31.65992187 42.24609375 31.87109375 C46.94726821 33.12019807 50.54318092 34.38190944 54 38 C54.05826811 40.79686936 53.78231347 42.36900531 53 45 C52.7009375 46.00675781 52.401875 47.01351562 52.09375 48.05078125 C49.38649299 56.61350701 49.38649299 56.61350701 47 59 C42.61298273 59.77417952 39.78557697 57.99703483 36.02734375 56.0234375 C26.74697927 51.33855216 16.59764149 52.25276176 6.859375 54.96484375 C-2.60499572 58.39115282 -7.95758121 64.64953937 -12.8125 73.1875 C-16.98900323 83.07921818 -16.29290749 96.33342278 -12.44921875 106.24609375 C-7.52889088 115.59604293 -0.09512654 121.38098847 9.859375 124.6015625 C20.41656248 126.56658645 32.6785653 125.43943854 41.96484375 119.80859375 C42.47144531 119.43863281 42.97804688 119.06867188 43.5 118.6875 C46 117 46 117 48.625 116.75 C52.44688757 118.76151977 53.42605546 122.11894871 55 126 C55.30164063 126.69222656 55.60328125 127.38445312 55.9140625 128.09765625 C57.56961116 132.11274856 58.79708798 135.61601613 58 140 C48.71312174 148.80711333 33.37176126 151.16698083 21 151 C21.01047363 151.83772949 21.02094727 152.67545898 21.03173828 153.53857422 C21.06580019 156.64338164 21.09088911 159.74809392 21.10986328 162.85302734 C21.12488107 164.8591136 21.15028981 166.86511324 21.17578125 168.87109375 C21.18222656 170.12792969 21.18867187 171.38476562 21.1953125 172.6796875 C21.20578613 173.84226074 21.21625977 175.00483398 21.22705078 176.20263672 C21 179 21 179 19 181 C16.04147891 181.44360072 13.05051549 181.32412652 10.0625 181.3125 C9.23814453 181.32861328 8.41378906 181.34472656 7.56445312 181.36132812 C6.37432617 181.36229492 6.37432617 181.36229492 5.16015625 181.36328125 C4.07166382 181.36775269 4.07166382 181.36775269 2.96118164 181.37231445 C1 181 1 181 -0.74169922 179.91943359 C-2.67768828 176.96624268 -2.33576452 174.42076928 -2.29296875 170.92578125 C-2.28872391 170.2419487 -2.28447906 169.55811615 -2.28010559 168.8535614 C-2.26333353 166.67280439 -2.22568657 164.49297691 -2.1875 162.3125 C-2.17245114 160.83269565 -2.15876308 159.3528768 -2.14648438 157.87304688 C-2.11343569 154.24839664 -2.06166446 150.62428906 -2 147 C-2.92433838 146.86424561 -3.84867676 146.72849121 -4.80102539 146.58862305 C-17.31223753 144.28651418 -27.11718561 135.01792906 -34.140625 125 C-43.54826715 109.82128325 -46.13054182 89.87633829 -42.125 72.48828125 C-36.81330328 55.48735719 -26.54901101 44.13883451 -11.33203125 35.53125 C-8.10931797 34.05023757 -5.48036517 33.5040214 -2 33 C-2.01571045 31.66038208 -2.01571045 31.66038208 -2.03173828 30.29370117 C-2.06583592 26.97824523 -2.09090637 23.66297579 -2.10986328 20.34741211 C-2.119917 18.91281188 -2.13356194 17.47823211 -2.15087891 16.04370117 C-2.17515549 13.98090562 -2.18648919 11.91838115 -2.1953125 9.85546875 C-2.21102295 7.99378052 -2.21102295 7.99378052 -2.22705078 6.09448242 C-2 3 -2 3 0 0 Z " fill="#FCFCFD" transform="translate(105,22)"/></svg>