<svg xmlns="http://www.w3.org/2000/svg" viewBox="0 0 60 60"><style type="text/css"> .tl70_st0{fill:#84B816;} .tl70_st1{fill:#FFFFFF;} </style><g id="tl70_Layer_1"></g><g id="tl70_svg7257"><path class="tl70_st0" d="M23.9 19.9c-3.3 0 -5.4 3.1 -5.4 6c0 3 1.9 6.2 5.5 6.2c3.8 0 5.5 -3.2 5.5 -6.3C29.5 22.2 27.2 19.9 23.9 19.9zM23.9 19.9c-3.3 0 -5.4 3.1 -5.4 6c0 3 1.9 6.2 5.5 6.2c3.8 0 5.5 -3.2 5.5 -6.3C29.5 22.2 27.2 19.9 23.9 19.9zM0 0v25.9c0 -4.6 3.2 -8.1 7.5 -8.1c1.9 0 3.8 .7 5.1 2.1c1.5 1.6 2.4 3.8 2.3 6.1v.4H2.1c0 1.5 .5 2.9 1.5 4C4.8 31.4 6.2 32 7.7 32c2.1 0 3.9 -1.2 5 -3.2l.2 -.3l1.8 1l-.1 .3c-1.3 2.6 -4 4.3 -7 4.2C3.2 34 0 30.6 0 25.9V60h60V18.2l-9.8 24.2H48c0 0 3.1 -8.5 3.2 -8.8l-7.3 -15.4h2.2l6.1 13l5.5 -13H60V0H0zM31.6 33.7h-2.1v-2.2c-1.4 1.6 -3.3 2.5 -5.4 2.5c-4.4 0 -7.7 -3.5 -7.7 -8.2c0 -4.7 3.1 -8 7.6 -8c2.1 0 4.1 .9 5.5 2.4c0 0 0 -2.1 0 -2.1h2.1V33.7zM44.2 29.1c0 1.4 -.5 2.6 -1.5 3.6c-1 .9 -2.3 1.4 -3.6 1.4c-2.6 .1 -4.8 -1.7 -5.4 -4.2l-.1 -.3l2 -.7l.1 .3c.4 1.3 1.3 2.8 3.4 2.8c.8 0 1.6 -.3 2.1 -.9s.9 -1.3 .9 -2.1c0 -1.5 -1.2 -2.1 -2.7 -2.6c-2 -.7 -4.6 -1.7 -4.6 -4.4c0 -2.3 1.9 -4.1 4.4 -4.1c1.7 0 3.3 1 4.1 2.6l.1 .3l-1.9 .9l-.1 -.3c-.4 -.9 -1.3 -1.5 -2.3 -1.5c-1 0 -2.2 .8 -2.2 2c0 1.3 1.1 1.8 2.9 2.4C41.8 25 44.2 25.8 44.2 29.1zM23.9 19.9c-3.3 0 -5.4 3.1 -5.4 6c0 3 1.9 6.2 5.5 6.2c3.8 0 5.5 -3.2 5.5 -6.3C29.5 22.2 27.2 19.9 23.9 19.9zM7.6 19.9c-2.7 0 -4.9 1.9 -5.4 4.5c0 0 10.6 0 10.7 0C12.4 22.1 10.5 19.9 7.6 19.9z"/><path id="tl70_path7186" class="tl70_st1" d="M7.6 17.8c-4.3 0 -7.6 3.5 -7.6 8.1C0 30.6 3.2 34 7.6 34c2.9 .1 5.6 -1.6 7 -4.2l.1 -.3l-1.8 -1l-.2 .3c-1.1 2 -2.9 3.2 -4.9 3.2c-1.5 0 -3 -.5 -4.1 -1.6c-1 -1.1 -1.6 -2.5 -1.5 -4H15V26c.1 -2.2 -.8 -4.4 -2.3 -6.1C11.4 18.5 9.5 17.8 7.6 17.8zM2.2 24.4c.5 -2.6 2.7 -4.5 5.4 -4.5c2.9 0 4.8 2.2 5.3 4.5C12.9 24.4 2.2 24.4 2.2 24.4zM29.5 20.3c-1.4 -1.5 -3.4 -2.4 -5.5 -2.4c-4.5 0 -7.6 3.3 -7.6 8s3.2 8.2 7.7 8.2c2.1 0 4 -.9 5.4 -2.5v2.2h2.1V18.2h-2.1C29.5 18.2 29.5 20.3 29.5 20.3zM24 32c-3.6 0 -5.5 -3.2 -5.5 -6.2c0 -2.9 2.1 -6 5.4 -6s5.6 2.4 5.6 5.8C29.6 28.8 27.9 32 24 32L24 32zM39.8 24.2c-1.8 -.6 -2.9 -1.1 -2.9 -2.4c0 -1.1 1.2 -2 2.2 -2c1 0 1.9 .6 2.3 1.5l.1 .3l1.9 -.9l-.1 -.3c-.8 -1.5 -2.4 -2.5 -4.1 -2.6c-2.5 0 -4.4 1.8 -4.4 4.1c0 2.8 2.5 3.7 4.6 4.4c1.5 .5 2.7 1.1 2.7 2.6c0 .8 -.3 1.6 -.9 2.1c-.6 .6 -1.3 .9 -2.1 .9c-2.1 0 -3 -1.5 -3.4 -2.8l-.1 -.3l-2 .7l.1 .3c.6 2.5 2.9 4.2 5.4 4.2c1.3 .1 2.7 -.4 3.6 -1.4c1 -.9 1.5 -2.2 1.5 -3.6C44.2 25.9 41.8 25 39.8 24.2zM52.3 31.1l-6.1 -12.9h-2.2l7.3 15.4c-.1 .3 -3.2 8.8 -3.2 8.8h2.2L60 18.2h-2.2L52.3 31.1z"/></g></svg>
