<svg viewBox="0 0 16 16" fill="none" xmlns="http://www.w3.org/2000/svg"><path d="M13.332 7.99838C13.2441 8.00065 13.1368 8.00065 12.9987 8.00065H7.9987M13.332 7.99838C13.4414 7.99556 13.5208 7.98923 13.5922 7.97503C14.1211 7.86982 14.5345 7.45636 14.6397 6.92744C14.6654 6.79864 14.6654 6.64375 14.6654 6.33398C14.6654 6.02421 14.6654 5.86933 14.6397 5.74053C14.5345 5.21161 14.1211 4.79815 13.5922 4.69294C13.4634 4.66732 13.3085 4.66732 12.9987 4.66732H9.66536M13.332 7.99838V10.8007C13.332 11.9208 13.332 12.4808 13.114 12.9086C12.9223 13.285 12.6163 13.5909 12.24 13.7827C11.8122 14.0007 11.2521 14.0007 10.132 14.0007H7.9987M2.66536 7.99838C2.75329 8.00065 2.86064 8.00065 2.9987 8.00065H7.9987M2.66536 7.99838C2.55603 7.99556 2.47663 7.98923 2.40524 7.97503C1.87632 7.86982 1.46286 7.45636 1.35765 6.92744C1.33203 6.79864 1.33203 6.64375 1.33203 6.33398C1.33203 6.02421 1.33203 5.86933 1.35765 5.74053C1.46286 5.21161 1.87632 4.79815 2.40524 4.69294C2.53404 4.66732 2.68893 4.66732 2.9987 4.66732H6.33203M2.66536 7.99838V10.8007C2.66536 11.9208 2.66536 12.4808 2.88335 12.9086C3.0751 13.285 3.38106 13.5909 3.75738 13.7827C4.18521 14.0007 4.74526 14.0007 5.86536 14.0007H7.9987M9.66536 4.66732C10.5858 4.66732 11.332 3.92113 11.332 3.00065C11.332 2.08018 10.5858 1.33398 9.66536 1.33398C8.74489 1.33398 7.9987 2.08018 7.9987 3.00065M9.66536 4.66732H7.9987M7.9987 3.00065C7.9987 2.08018 7.25251 1.33398 6.33203 1.33398C5.41156 1.33398 4.66536 2.08018 4.66536 3.00065C4.66536 3.92113 5.41156 4.66732 6.33203 4.66732M7.9987 3.00065V4.66732M6.33203 4.66732H7.9987M7.9987 14.0007V8.00065M7.9987 8.00065V4.66732" stroke="#525866" stroke-width="1.3" stroke-linecap="round" stroke-linejoin="round"/></svg>