<svg viewBox="0 0 20 20" fill="none" xmlns="http://www.w3.org/2000/svg"><rect x="0.3" y="0.3" width="19.4" height="19.4" rx="2.7" fill="#FCFCFD"/><rect x="0.3" y="0.3" width="19.4" height="19.4" rx="2.7" stroke="#E1E4EA" stroke-width="0.6"/><circle cx="10" cy="10" r="5.5" stroke="#136EF6"/><path fill-rule="evenodd" clip-rule="evenodd" d="M8.03143 10.6663C8.01108 10.6919 8 10.7237 8 10.7564V11.1785C8 11.2586 8.06494 11.3235 8.14505 11.3235H10.6491C10.7292 11.3235 10.7941 11.3885 10.7941 11.4686V12.8549C10.7941 12.9351 10.8591 13 10.9392 13H11.3844C11.4645 13 11.5294 12.9351 11.5294 12.8549V7.14505C11.5294 7.06494 11.4645 7 11.3844 7H11.0112C10.967 7 10.9251 7.02021 10.8976 7.05488L8.03143 10.6663ZM9.0721 10.6765C8.99979 10.6765 8.94118 10.6179 8.94118 10.5455C8.94118 10.5161 8.95114 10.4874 8.96945 10.4643L10.576 8.43498C10.6023 8.40174 10.6424 8.38235 10.6848 8.38235C10.7614 8.38235 10.8235 8.44448 10.8235 8.52111V10.5314C10.8235 10.6115 10.7586 10.6765 10.6785 10.6765H9.0721Z" fill="#090304"/></svg>