<svg aria-hidden="false" aria-label="Klarna" role="img" viewBox="0 0 51 22" width="64.9090909090909" height="28" style="margin-left: -2px;"><path d="M44.2986 -0.00524902H5.98714C2.68054 -0.00524902 0 2.67529 0 5.98189V16.0076C0 19.3142 2.68054 21.9948 5.98714 21.9948H44.2986C47.6052 21.9948 50.2857 19.3142 50.2857 16.0076V5.98189C50.2857 2.67529 47.6052 -0.00524902 44.2986 -0.00524902Z" fill="#FFA8CD"></path><path d="M41.1195 14.1197C40.2073 14.1197 39.4964 13.3654 39.4964 12.4495C39.4964 11.5335 40.2073 10.7792 41.1195 10.7792C42.0317 10.7792 42.7427 11.5335 42.7427 12.4495C42.7427 13.3654 42.0317 14.1197 41.1195 14.1197ZM40.6634 15.8842C41.4415 15.8842 42.4342 15.5879 42.9842 14.4295L43.0378 14.4565C42.7964 15.0895 42.7963 15.4666 42.7963 15.5609V15.7091H44.7548V9.18989H42.7963V9.33799C42.7963 9.43228 42.7964 9.80942 43.0378 10.4426L42.9842 10.4695C42.4342 9.31112 41.4415 9.01475 40.6634 9.01475C38.7988 9.01475 37.4842 10.4964 37.4842 12.4495C37.4842 14.4026 38.7988 15.8842 40.6634 15.8842ZM34.0768 9.01475C33.1915 9.01475 32.4939 9.32456 31.9306 10.4695L31.8769 10.4426C32.1184 9.80942 32.1184 9.43228 32.1184 9.33799V9.18989H30.1598V15.7091H32.172V12.2744C32.172 11.3719 32.6951 10.8062 33.5403 10.8062C34.3854 10.8062 34.8013 11.2911 34.8013 12.2609V15.7091H36.8135V11.5605C36.8135 10.0788 35.6598 9.01475 34.0768 9.01475ZM27.2489 10.4695L27.1952 10.4426C27.4367 9.80942 27.4367 9.43228 27.4367 9.33799V9.18989H25.4781V15.7091H27.4903L27.5038 12.5707C27.5038 11.6548 27.9867 11.1026 28.7781 11.1026C28.9928 11.1026 29.1671 11.1295 29.3684 11.1833V9.18989C28.483 9.00132 27.6916 9.33799 27.2489 10.4695ZM20.8501 14.1197C19.9379 14.1197 19.227 13.3654 19.227 12.4495C19.227 11.5335 19.9379 10.7792 20.8501 10.7792C21.7623 10.7792 22.4732 11.5335 22.4732 12.4495C22.4732 13.3654 21.7623 14.1197 20.8501 14.1197ZM20.394 15.8842C21.1721 15.8842 22.1648 15.5879 22.7148 14.4295L22.7684 14.4565C22.5269 15.0895 22.5269 15.4666 22.5269 15.5609V15.7091H24.4855V9.18989H22.5269V9.33799C22.5269 9.43228 22.5269 9.80942 22.7684 10.4426L22.7148 10.4695C22.1648 9.31112 21.1721 9.01475 20.394 9.01475C18.5294 9.01475 17.2148 10.4964 17.2148 12.4495C17.2148 14.4026 18.5294 15.8842 20.394 15.8842ZM14.4111 15.7091H16.4233V6.28047H14.4111V15.7091ZM12.9355 6.28047H10.8831C10.8831 7.96417 9.85019 9.47274 8.28065 10.5503L7.66361 10.9813V6.28047H5.53069V15.7091H7.66361V11.0352L11.1916 15.7091H13.7941L10.4002 11.2372C11.9429 10.1192 12.949 8.3817 12.9355 6.28047Z" fill="#0B051D"></path></svg>