<svg xmlns="http://www.w3.org/2000/svg" viewBox="0 0 68 68"><style type="text/css"> .tl87_st0{fill:#222221;} .tl87_st1{fill:#FFFFFF;} </style><g><path class="tl87_st0" d="M14.3 41.1c-1.3 0 -2.2 .7 -2.6 1.9c-.5 1.5 -.5 3.1 0 4.7c.3 1.4 1.4 2.1 2.7 2c1.4 -.1 2.2 -.9 2.6 -2.2c.1 -.6 .1 -1.3 .1 -2.1c0 -.8 0 -1.7 -.3 -2.5C16.4 41.8 15.5 41.1 14.3 41.1z"/><path class="tl87_st0" d="M57.2 27.9c-.1 0 -.1 0 -.3 0c-.8 0 -1.7 -.1 -2.5 .3c-.6 .3 -1 .7 -1 1.4c-.1 .7 .1 1.3 .7 1.7c1 .7 3.3 .5 4.2 -.4c.5 -.5 .9 -2.4 .6 -2.7C58.4 27.7 57.8 27.9 57.2 27.9z"/><path class="tl87_st0" d="M28.6 46.2c-.3 -.1 -.6 -.1 -.9 0c-.8 0 -1.5 -.1 -2.3 .2c-.8 .2 -1.2 .8 -1.3 1.6c-.1 .7 .2 1.3 .9 1.7c.5 .2 1 .3 1.4 .3c1.5 0 3.3 -.5 3.2 -2.8C29.6 46.2 29.6 46.2 28.6 46.2z"/><path class="tl87_st0" d="M34 0C15.2 0 0 15.2 0 34c0 18.8 15.2 34 34 34s34 -15.2 34 -34C68 15.2 52.8 0 34 0zM8.4 30.2c0 .7 0 1.5 0 2.2s-.4 1.1 -1 1.1c-.6 0 -1.1 -.4 -1.1 -1.1c0 -5 0 -9.9 0 -15c0 -.7 .4 -1.1 1.1 -1.1c.6 0 1 .4 1 1.1c0 3 0 6.1 0 9.1c.1 .1 .1 .2 .1 .5c1.5 -1.7 2.9 -3.3 4.3 -4.9c.2 -.2 .3 -.3 .5 -.5c.5 -.5 1.1 -.6 1.5 -.2c.4 .3 .3 1 -.1 1.5c-.7 .8 -1.4 1.6 -2.2 2.3c-.4 .4 -.5 .7 -.1 1.2c1.1 1.7 2.2 3.5 3.3 5.3c.5 .7 .3 1.3 -.2 1.7c-.6 .3 -1.1 .1 -1.6 -.6c-1 -1.6 -1.9 -3.2 -3 -4.8c-.1 -.2 -.2 -.4 -.4 -.5c-.6 .6 -1.1 1.3 -1.8 1.9C8.4 29.7 8.4 29.9 8.4 30.2zM18.8 48.9c-1 3.1 -5.1 3.9 -7.4 1.4c-.1 1 -.5 1.4 -1.2 1.3c-.6 -.1 -1 -.5 -1 -1.4c0 -4.9 0 -9.7 0 -14.5c0 -.9 .3 -1.3 1 -1.4c.7 0 1.1 .4 1.1 1.3c0 1.7 0 3.3 0 5c1.4 -1.5 3.1 -1.8 4.9 -1.3c1.8 .5 2.6 1.9 2.9 3.7C19.4 45 19.5 46.9 18.8 48.9zM18.5 29.5c-.1 -2.5 -.1 -4.9 -.1 -7.3c0 -.7 .5 -1.1 1.1 -1.1c.6 0 1 .4 1 1.1c0 1.9 0 3.8 0 5.7c0 .5 0 .9 .1 1.4c.3 1.5 1.3 2.3 2.6 2.2c1.4 -.1 2.5 -1.1 2.6 -2.6c.1 -2.2 .1 -4.3 .1 -6.5c0 -.4 .1 -.8 .4 -1.1c.3 -.3 .7 -.3 1.1 -.2c.4 .2 .7 .5 .7 .9c0 .6 0 1.2 0 1.8c0 2.6 0 5.3 0 7.9c0 1 -.3 1.4 -1 1.5c-.8 .1 -1.1 -.3 -1.3 -1.3c-1 1.2 -2.3 1.6 -3.8 1.4C19.9 33.2 18.6 31.8 18.5 29.5zM32 51.4c-.6 .4 -1.3 .2 -1.7 -.6c-.3 -.5 -.4 -.4 -.8 -.1c-1.5 1.3 -4.3 1.4 -6 .3c-1.3 -.8 -1.5 -2.1 -1.4 -3.4c.1 -1.3 .7 -2.2 1.9 -2.7c.8 -.3 1.7 -.5 2.5 -.5c.9 0 1.7 -.1 2.5 0c.5 0 .6 -.2 .6 -.7c-.1 -1.9 -1.1 -2.8 -3 -2.6c-.8 .1 -1.5 .2 -2.2 .6c-.6 .3 -1.1 .3 -1.4 -.3c-.3 -.5 -.1 -1.1 .6 -1.4c1.9 -.9 3.9 -1.1 5.8 -.3c1.7 .6 2.2 1.9 2.3 3.6c0 .9 0 1.7 0 2.5c0 .6 0 1.3 0 1.9c-.1 .8 .1 1.5 .5 2.2C32.6 50.5 32.5 51.1 32 51.4zM32.5 30c-.1 -.9 -.1 -1.9 -.1 -3c0 -1.1 -.1 -2.2 0 -3.3c0 -.6 -.1 -.8 -.7 -.8c-.9 .1 -1.3 -.6 -.9 -1.3c.2 -.4 .5 -.5 .9 -.5c.7 .1 .8 -.2 .8 -.8c-.1 -.6 0 -1.3 0 -1.9c0 -.8 .4 -1.2 1 -1.2c.6 0 1 .5 1.1 1.2c0 .7 0 1.5 0 2.2c0 .4 .1 .6 .5 .5c.4 -.1 .8 0 1.2 0c.6 0 .9 .3 .9 .9c0 .6 -.3 .8 -.9 .8h-.1c-.5 .1 -1.3 -.3 -1.5 .2c-.2 .3 -.1 1 -.1 1.5c0 1.7 0 3.3 0 5c0 1.4 .2 1.6 1.6 1.7c.7 .1 1 .4 1 1c-.1 .6 -.4 .9 -.9 .9C34 33.4 32.4 32.7 32.5 30zM45.2 50.5c0 .7 -.5 1.1 -1.1 1.1c-.6 0 -1 -.5 -1 -1.1c0 -1.9 0 -3.8 0 -5.7c0 -.3 0 -.6 -.1 -1c-.2 -1.7 -1.1 -2.6 -2.7 -2.5c-1.5 .1 -2.6 1.1 -2.6 2.7c-.1 2 0 4 0 5.9c0 .3 0 .6 -.1 .9c-.1 .5 -.5 .7 -1 .8c-.5 0 -.9 -.2 -1 -.7c-.1 -.2 -.1 -.5 -.1 -.7c0 -3.1 0 -6.3 0 -9.4c0 -.2 .1 -.5 .1 -.7c.2 -.5 .5 -.6 1 -.6s.7 .2 1 .6c.2 .2 .1 .4 .3 .6c.8 -.9 1.8 -1.3 3 -1.4c2.6 -.1 4.3 1.4 4.3 3.9C45.3 45.6 45.2 48 45.2 50.5zM48.3 33.1c-.5 .3 -1 .2 -1.4 -.3c-.8 -1.1 -1.6 -2.2 -2.4 -3.4c-.2 -.2 -.3 -.5 -.6 -.8c-.9 1.3 -1.8 2.5 -2.6 3.7c-.1 .2 -.3 .4 -.4 .5c-.4 .4 -.9 .6 -1.4 .2c-.5 -.3 -.5 -.9 -.2 -1.4c.4 -.6 .9 -1.3 1.3 -1.9c.6 -.8 1.1 -1.7 1.8 -2.5c.3 -.3 .3 -.6 0 -1c-.9 -1.1 -1.7 -2.3 -2.5 -3.5c-.5 -.7 -.5 -1.3 0 -1.7c.5 -.4 1.1 -.2 1.7 .6c.8 1.2 1.5 2.3 2.4 3.5c.9 -1.2 1.6 -2.3 2.4 -3.4c.2 -.3 .5 -.6 .9 -.7c.4 -.1 .7 0 .9 .3c.3 .4 .2 .9 -.1 1.3c-.9 1.2 -1.7 2.5 -2.6 3.7c-.3 .5 -.3 .8 .1 1.2c.9 1.2 1.8 2.5 2.7 3.7c.1 .2 .2 .3 .3 .5C48.8 32.3 48.8 32.8 48.3 33.1zM58.4 51.4c-.5 .5 -1.2 .2 -1.7 -.5c-1 -1.5 -1.9 -3.1 -2.9 -4.7c-.2 -.2 -.3 -.5 -.5 -.7c-.6 .7 -1.2 1.4 -1.8 2c-.2 .2 -.3 .5 -.2 .7c0 .7 0 1.5 0 2.2s-.5 1.1 -1.1 1.1c-.6 0 -1 -.5 -1 -1.1c0 -5 0 -10 0 -15c0 -.7 .4 -1.1 1 -1.1c.7 0 1.1 .4 1.1 1.1c0 2.9 0 5.8 0 8.7c0 .2 0 .5 0 .9c1.5 -1.7 2.9 -3.3 4.2 -4.8c.2 -.2 .5 -.5 .7 -.7c.4 -.4 .9 -.5 1.4 -.1c.4 .4 .4 .9 0 1.4c-.8 .9 -1.6 1.8 -2.4 2.6c-.3 .3 -.3 .5 -.1 .9c1.1 1.8 2.2 3.6 3.4 5.4C58.8 50.3 59 50.9 58.4 51.4zM61.3 33.1c-.6 .3 -1.2 .2 -1.7 -.7c-.1 0 -.2 -.1 -.3 -.3c-1.4 1.3 -3 1.5 -4.7 1.3c-2.1 -.3 -3.3 -1.7 -3.2 -3.6c.1 -2 1.3 -3.3 3.4 -3.5c1.2 -.1 2.3 -.1 3.5 -.1c.5 0 .6 -.1 .6 -.6c0 -1.9 -1 -2.9 -3 -2.7c-.8 .1 -1.5 .2 -2.2 .6c-.6 .3 -1.1 .3 -1.4 -.3c-.3 -.5 -.1 -1.1 .6 -1.4c2 -1 4.1 -1.1 6.1 -.3c1.2 .5 1.8 1.5 1.9 2.7c.2 1.8 .1 3.5 .1 5.3c0 .7 .1 1.3 .5 1.9C61.9 32.2 61.8 32.7 61.3 33.1z"/></g><path class="tl87_st1" d="M11.4 50.3c-.1 1 -.5 1.4 -1.2 1.3c-.6 -.1 -1 -.5 -1 -1.4c0 -4.9 0 -9.7 0 -14.5c0 -.9 .3 -1.3 1 -1.4c.7 0 1.1 .4 1.1 1.3c0 1.7 0 3.3 0 5c1.4 -1.5 3.1 -1.8 4.9 -1.3c1.8 .5 2.6 1.9 2.9 3.7c.3 1.9 .4 3.9 -.3 5.8C17.7 52 13.6 52.8 11.4 50.3zM17.1 45.4c0 -.8 0 -1.7 -.3 -2.5c-.5 -1.2 -1.3 -1.8 -2.6 -1.8S12 41.8 11.7 43c-.5 1.5 -.5 3.1 0 4.7c.3 1.4 1.4 2.1 2.7 2c1.4 -.1 2.2 -.9 2.6 -2.2C17.1 46.9 17.1 46.2 17.1 45.4zM31.6 45.7c0 .6 0 1.3 0 1.9c-.1 .8 .1 1.5 .5 2.2c.5 .7 .3 1.3 -.2 1.7c-.6 .4 -1.3 .2 -1.7 -.6c-.3 -.5 -.4 -.4 -.8 -.1c-1.5 1.3 -4.3 1.4 -6 .3c-1.3 -.8 -1.5 -2.1 -1.4 -3.4c.1 -1.3 .7 -2.2 1.9 -2.7c.8 -.3 1.7 -.5 2.5 -.5c.9 0 1.7 -.1 2.5 0c.5 0 .6 -.2 .6 -.7c-.1 -1.9 -1.1 -2.8 -3 -2.6c-.8 .1 -1.5 .2 -2.2 .6c-.6 .3 -1.1 .3 -1.4 -.3c-.3 -.5 -.1 -1.1 .6 -1.4c1.9 -.9 3.9 -1.1 5.8 -.3c1.7 .6 2.2 1.9 2.3 3.6C31.6 44.1 31.6 44.9 31.6 45.7L31.6 45.7zM27.7 46.2c-.8 0 -1.5 -.1 -2.3 .2c-.8 .2 -1.2 .8 -1.3 1.6c-.1 .7 .2 1.3 .9 1.7c.5 .2 1 .3 1.4 .3c1.5 0 3.3 -.5 3.2 -2.8c-.1 -1 0 -1 -1 -1C28.3 46.1 28 46.1 27.7 46.2zM53.3 45.5c-.6 .7 -1.2 1.4 -1.8 2c-.2 .2 -.3 .5 -.2 .7c0 .7 0 1.5 0 2.2c0 .7 -.5 1.1 -1.1 1.1s-1 -.5 -1 -1.1c0 -5 0 -10 0 -15c0 -.7 .4 -1.1 1 -1.1c.7 0 1.1 .4 1.1 1.1c0 2.9 0 5.8 0 8.7c0 .2 0 .5 0 .9c1.5 -1.7 2.9 -3.3 4.2 -4.8c.2 -.2 .5 -.5 .7 -.7c.4 -.4 .9 -.5 1.4 -.1c.4 .4 .4 .9 0 1.4c-.8 .9 -1.6 1.8 -2.4 2.6c-.3 .3 -.3 .5 -.1 .9c1.1 1.8 2.2 3.6 3.4 5.4c.3 .5 .5 1.1 -.1 1.5c-.5 .5 -1.2 .2 -1.7 -.5c-1 -1.5 -1.9 -3.1 -2.9 -4.7C53.7 46 53.5 45.8 53.3 45.5zM37.9 40.6c.8 -.9 1.8 -1.3 3 -1.4c2.6 -.1 4.3 1.4 4.3 3.9c.1 2.5 .1 4.9 0 7.3c0 .7 -.5 1.1 -1.1 1.1s-1 -.5 -1 -1.1c0 -1.9 0 -3.8 0 -5.7c0 -.3 0 -.6 -.1 -1c-.2 -1.7 -1.1 -2.6 -2.7 -2.5c-1.5 .1 -2.6 1.1 -2.6 2.7c-.1 2 0 4 0 5.9c0 .3 0 .6 -.1 .9c-.1 .5 -.5 .7 -1 .8c-.5 0 -.9 -.2 -1 -.7c-.1 -.2 -.1 -.5 -.1 -.7c0 -3.1 0 -6.3 0 -9.4c0 -.2 .1 -.5 .1 -.7c.2 -.5 .5 -.6 1 -.6c.5 0 .7 .2 1 .6C37.7 40.2 37.6 40.4 37.9 40.6zM59.2 32.1c-1.4 1.3 -3 1.5 -4.7 1.3c-2.1 -.3 -3.3 -1.7 -3.2 -3.6c.1 -2 1.3 -3.3 3.4 -3.5c1.2 -.1 2.3 -.1 3.5 -.1c.5 0 .6 -.1 .6 -.6c0 -1.9 -1 -2.9 -3 -2.7c-.8 .1 -1.5 .2 -2.2 .6c-.6 .3 -1.1 .3 -1.4 -.3c-.3 -.5 -.1 -1.1 .6 -1.4c2 -1 4.1 -1.1 6.1 -.3c1.2 .5 1.8 1.5 1.9 2.7c.2 1.8 .1 3.5 .1 5.3c0 .7 .1 1.3 .5 1.9c.5 .9 .5 1.4 -.1 1.8c-.6 .3 -1.2 .2 -1.7 -.7C59.4 32.4 59.3 32.3 59.2 32.1zM56.9 27.9c-.8 0 -1.7 -.1 -2.5 .3c-.6 .3 -1 .7 -1 1.4c-.1 .7 .1 1.3 .7 1.7c1 .7 3.3 .5 4.2 -.4c.5 -.5 .9 -2.4 .6 -2.7c-.4 -.4 -1 -.1 -1.6 -.2C57.1 27.9 57.1 27.9 56.9 27.9zM8.4 27c1.5 -1.7 2.9 -3.3 4.3 -4.9c.2 -.2 .3 -.3 .5 -.5c.5 -.5 1.1 -.6 1.5 -.2c.4 .3 .3 1 -.1 1.5c-.7 .8 -1.4 1.6 -2.2 2.3c-.4 .4 -.5 .7 -.1 1.2c1.1 1.7 2.2 3.5 3.3 5.3c.5 .7 .3 1.3 -.2 1.7c-.6 .3 -1.1 .1 -1.6 -.6c-1 -1.6 -1.9 -3.2 -3 -4.8c-.1 -.2 -.2 -.4 -.4 -.5c-.6 .6 -1.1 1.3 -1.8 1.9c-.2 .2 -.3 .5 -.3 .7c0 .7 0 1.5 0 2.2c0 .7 -.4 1.1 -1 1.1s-1.1 -.4 -1.1 -1.1c0 -5 0 -9.9 0 -15c0 -.7 .4 -1.1 1.1 -1.1c.6 0 1 .4 1 1.1c0 3 0 6.1 0 9.1C8.4 26.6 8.4 26.7 8.4 27zM25.8 32.1c-1 1.2 -2.3 1.6 -3.8 1.4c-2.1 -.3 -3.4 -1.7 -3.5 -3.9c-.1 -2.5 -.1 -4.9 -.1 -7.3c0 -.7 .5 -1.1 1.1 -1.1c.6 0 1 .4 1 1.1c0 1.9 0 3.8 0 5.7c0 .5 0 .9 .1 1.4c.3 1.5 1.3 2.3 2.6 2.2c1.4 -.1 2.5 -1.1 2.6 -2.6c.1 -2.2 .1 -4.3 .1 -6.5c0 -.4 .1 -.8 .4 -1.1c.3 -.3 .7 -.3 1.1 -.2c.4 .2 .7 .5 .7 .9c0 .6 0 1.2 0 1.8c0 2.6 0 5.3 0 7.9c0 1 -.3 1.4 -1 1.5C26.3 33.4 26 33 25.8 32.1zM43.9 25.3c.9 -1.2 1.6 -2.3 2.4 -3.4c.2 -.3 .5 -.6 .9 -.7s.7 0 .9 .3c.3 .4 .2 .9 -.1 1.3c-.9 1.2 -1.7 2.5 -2.6 3.7c-.3 .5 -.3 .8 .1 1.2c.9 1.2 1.8 2.5 2.7 3.7c.1 .2 .2 .3 .3 .5c.3 .5 .3 1 -.2 1.4s-1 .2 -1.4 -.3c-.8 -1.1 -1.6 -2.2 -2.4 -3.4c-.2 -.2 -.3 -.5 -.6 -.8c-.9 1.3 -1.8 2.5 -2.6 3.7c-.1 .2 -.3 .4 -.4 .5c-.4 .4 -.9 .6 -1.4 .2c-.5 -.3 -.5 -.9 -.2 -1.4c.4 -.6 .9 -1.3 1.3 -1.9c.6 -.8 1.1 -1.7 1.8 -2.5c.3 -.3 .3 -.6 0 -1c-.9 -1.1 -1.7 -2.3 -2.5 -3.5c-.5 -.7 -.5 -1.3 0 -1.7c.5 -.4 1.1 -.2 1.7 .6C42.3 23 43.1 24.1 43.9 25.3zM32.3 27c0 -1.1 -.1 -2.2 0 -3.3c0 -.6 -.1 -.8 -.7 -.8c-.9 .1 -1.3 -.6 -.9 -1.3c.2 -.4 .5 -.5 .9 -.5c.7 .1 .8 -.2 .8 -.8c-.1 -.6 0 -1.3 0 -1.9c0 -.8 .4 -1.2 1 -1.2c.6 0 1 .5 1.1 1.2c0 .7 0 1.5 0 2.2c0 .4 .1 .6 .5 .5c.4 -.1 .8 0 1.2 0c.6 0 .9 .3 .9 .9c0 .6 -.3 .8 -.9 .8h-.1c-.5 .1 -1.3 -.3 -1.5 .2c-.2 .3 -.1 1 -.1 1.5c0 1.7 0 3.3 0 5c0 1.4 .2 1.6 1.6 1.7c.7 .1 1 .4 1 1c-.1 .6 -.4 .9 -.9 .9c-2.2 .1 -3.8 -.5 -3.8 -3.3C32.3 29.1 32.3 28.1 32.3 27z"/></svg>
