<svg xmlns="http://www.w3.org/2000/svg" viewBox="0 0 68 68"><style type="text/css"> .tl88_st0{fill:#4B2C4F;} .tl88_st1{fill:#90004F;} .tl88_st2{fill:#93BA1F;} .tl88_st3{fill:#FFFFFF;} </style><path class="tl88_st0" d="M20.2 30.7L4.1 42v10.3h23L58 30.7H20.2zM23.8 42.6c-.2 .9 0 3.8 1.1 4c.8 .2 1.3 -.4 2 -.7c.1 1.3 .1 2.5 .2 3.8H21c.4 -3.2 .5 -5.2 .6 -7.1c-1.2 -.2 -2.6 -.6 -3.7 -1.5c-1 -.8 -1.5 -1.8 -1.6 -3c-.1 -2.1 2.6 -4.8 6.2 -4.8c.6 0 1.4 0 2.2 .2c-.2 .5 -.6 1.1 -.6 2.2c-.4 -.1 -.7 -.2 -1.2 -.2c-2.6 0 -3.3 1.8 -3.3 2.4c0 1.7 1.7 2.3 2.9 2.4c.9 .1 1.8 -.1 2.6 -.6c.6 -.4 .7 -.5 1 -1.2c.6 .3 2.2 .5 3.3 .1C29.2 40.9 26.3 42.5 23.8 42.6z"/><polygon class="tl88_st1" points="4.1,30.7 20.2,30.7 4.1,42 "/><polygon class="tl88_st1" points="64.1,30.7 64.1,52.3 27.2,52.3 58,30.7 "/><polygon class="tl88_st2" points="4.1,52.3 27.2,52.3 4.1,68.4 "/><polygon class="tl88_st2" points="64.1,0 64.1,26.5 58.1,30.7 20.2,30.7 "/><path class="tl88_st3" d="M23.8 42.6c-.2 .9 0 3.8 1.1 4c.8 .2 1.3 -.4 2 -.7c.1 1.3 .1 2.5 .2 3.8H21c.4 -3.2 .5 -5.3 .6 -7.1c-1.2 -.2 -2.6 -.6 -3.7 -1.5c-1 -.8 -1.5 -1.8 -1.6 -3c-.1 -2.1 2.6 -4.7 6.2 -4.7c.6 0 1.4 0 2.2 .2c-.3 .5 -.6 1.1 -.6 2.2c-.4 -.1 -.7 -.2 -1.2 -.2c-2.6 0 -3.3 1.8 -3.3 2.4c0 1.7 1.7 2.3 2.9 2.4c.9 .1 1.8 -.1 2.6 -.6c.6 -.4 .7 -.5 1 -1.2c.7 .3 2.2 .5 3.3 .1C29.2 40.9 26.3 42.5 23.8 42.6L23.8 42.6z"/></svg>
