<svg xmlns="http://www.w3.org/2000/svg" width="226" height="149" viewBox="0 0 226 149" fill="none"><path d="M217.599 48.287C217.958 48.764 218.283 49.2652 218.572 49.787C217.787 46.494 216.585 43.3146 214.995 40.3257C201.809 16.2936 165.431 23.4802 129.07 50.7265C119.482 57.8826 110.871 66.261 103.455 75.6487C107.854 78.3054 112.057 81.2745 116.032 84.533C118.435 86.2934 120.982 87.8483 123.647 89.1812C125.954 86.511 128.344 83.8902 130.866 81.3023C163.305 47.8914 204.529 30.914 217.599 48.287Z" fill="url(#paint0_linear_318_4612)"/><path d="M219.873 68.6764L220.549 68.4786C221.719 60.9624 221.241 54.4517 218.555 49.787C219.99 55.9742 220.435 62.3498 219.873 68.6764Z" fill="url(#paint1_linear_318_4612)"/><path d="M218.472 49.6715C218.183 49.1497 217.858 48.6486 217.5 48.1715L217.352 48.0067C217.648 48.9133 217.912 49.8363 218.143 50.7923C218.544 51.467 218.891 52.1725 219.181 52.9021C218.983 51.7978 218.736 50.7264 218.472 49.6715Z" fill="#E7E6E6"/><path d="M128.69 52.1935C164.952 24.7494 201.347 17.3485 214.566 41.3147C215.718 43.4176 216.667 45.6253 217.401 47.9079C217.442 47.9703 217.492 48.0259 217.549 48.0727C217.895 48.5507 218.209 49.0452 218.522 49.5727C217.723 46.2872 216.504 43.1183 214.896 40.1444C201.709 16.1617 165.265 23.5626 129.019 51.0067C115.713 61.0057 104.388 73.3984 95.625 87.5494C95.7013 87.6332 95.7729 87.7212 95.8393 87.8131C104.525 74.0356 115.659 61.9636 128.69 52.1935Z" fill="#E7E6E6"/><path d="M118.338 75.83C115.042 72.995 111.58 70.3247 108.448 67.2589C102.136 74.7333 95.1631 81.6236 87.6139 87.8461C55.159 114.647 20.2152 123.532 9.5507 107.626C9.38587 107.378 9.23752 107.115 9.08917 106.867C7.04493 103.842 5.51346 100.501 4.55637 96.9777C2.82714 90.3159 2.96973 83.3061 4.96844 76.7201C0.023555 86.7418 -1.44343 96.648 1.67185 105.12C9.91332 127.521 46.7362 131.279 83.8064 113.543C101.097 105.302 115.371 93.7635 124.882 81.6156C122.723 79.7035 120.563 77.7585 118.338 75.83Z" fill="url(#paint2_linear_318_4612)"/><path d="M39.7316 42.4026C37.9954 42.5503 36.2813 42.8931 34.6218 43.4245L34.7207 43.6718L34.424 43.5234C27.2705 48.6331 27.0232 48.6661 34.7207 43.6718C30.2037 46.4806 25.9697 49.7209 22.0783 53.3473C15.7669 59.4599 10.4055 66.4825 6.17228 74.1817C5.73273 75.0059 5.30417 75.83 4.88661 76.6541C2.89331 83.2837 2.77919 90.3365 4.55695 97.0271C5.51404 100.55 7.04552 103.892 9.08976 106.917C6.31342 102.005 4.82233 96.4714 4.75474 90.8295C4.96902 76.7201 16.8367 58.0614 24.9299 51.1056C28.4289 47.8536 32.8879 45.8236 37.6382 45.3201C38.1636 44.2348 38.8717 43.2479 39.7316 42.4026Z" fill="url(#paint3_linear_318_4612)"/><path style="mix-blend-mode:multiply" opacity="0.71" d="M70.6719 100.307C85.8692 90.8789 99.55 77.8739 103.803 72.2862L106.275 69.5994C108.204 67.7698 110.594 64.0941 112.489 62.3305C117.319 59.8086 126.335 53.5121 135.763 47.2486C139.818 44.5619 143.906 41.9081 146.213 40.6554L157.29 58.9844C150.383 63.4678 132.697 78.3849 126.45 83.7088C124.472 85.3571 126.829 81.6979 124.983 83.4451L111.797 95.2964C102.687 103.023 92.5666 109.472 81.7155 114.466L70.6719 100.307Z" fill="url(#paint4_linear_318_4612)"/><path d="M212.506 36.683C239.488 87.7801 178.073 111.713 145.849 76.4728C132.267 59.347 130.767 50.9078 122.295 42.2048C86.0321 7.01369 33.8801 28.8866 6.76562 72.9949C10.3754 68.6764 33.3032 42.5344 66.6482 46.6222C92.411 49.9188 96.6306 82.8847 134.756 102.318C178.04 124.471 255.806 94.5546 212.506 36.683Z" fill="url(#paint5_linear_318_4612)"/><g style="mix-blend-mode:darken" opacity="0.57"><path d="M135.911 101.065C97.7856 81.5826 93.5659 48.6002 67.8031 45.3695C35.991 41.3971 13.6566 65.0172 8.54688 70.8851V70.984C15.3049 63.5337 36.7986 42.963 66.6493 46.7047C92.4121 50.0012 96.6317 82.9671 134.757 102.384C161.558 116.065 201.562 109.801 217.88 89.2966C200.903 108.796 162.086 114.433 135.911 101.065Z" fill="#1887B2"/></g><g style="mix-blend-mode:soft-light"><path d="M213.825 38.3478C213.397 37.7379 212.968 37.1281 212.507 36.5182C238.879 86.5274 180.563 110.56 147.877 78.4014C180.184 111.532 239.127 88.0604 213.825 38.3478Z" fill="white"/></g><defs><linearGradient id="paint0_linear_318_4612" x1="95.8304" y1="56.8322" x2="221.193" y2="58.145" gradientUnits="userSpaceOnUse"><stop offset="0.01" stop-color="#FFA220"/><stop offset="0.04" stop-color="#FFA61C"/><stop offset="0.34" stop-color="#FFC000"/><stop offset="0.61" stop-color="#FDC200"/><stop offset="0.74" stop-color="#F6C900"/><stop offset="0.75" stop-color="#F5CB00"/><stop offset="0.78" stop-color="#F3C200"/><stop offset="0.84" stop-color="#F0B100"/><stop offset="0.89" stop-color="#EFAB00"/><stop offset="1" stop-color="#B74600"/></linearGradient><linearGradient id="paint1_linear_318_4612" x1="95.8186" y1="57.9365" x2="221.18" y2="59.2493" gradientUnits="userSpaceOnUse"><stop offset="0.01" stop-color="#FFA220"/><stop offset="0.04" stop-color="#FFA61C"/><stop offset="0.34" stop-color="#FFC000"/><stop offset="0.61" stop-color="#FDC200"/><stop offset="0.74" stop-color="#F6C900"/><stop offset="0.75" stop-color="#F5CB00"/><stop offset="0.78" stop-color="#F3C200"/><stop offset="0.84" stop-color="#F0B100"/><stop offset="0.89" stop-color="#EFAB00"/><stop offset="1" stop-color="#B74600"/></linearGradient><linearGradient id="paint2_linear_318_4612" x1="15.2091" y1="75.1287" x2="132.262" y2="102.051" gradientUnits="userSpaceOnUse"><stop offset="0.01" stop-color="#C59252"/><stop offset="0.22" stop-color="#EBA31C"/><stop offset="0.34" stop-color="#FFAC00"/><stop offset="0.51" stop-color="#FDAC03"/><stop offset="0.63" stop-color="#F6AB0D"/><stop offset="0.75" stop-color="#E9AA1E"/><stop offset="0.78" stop-color="#E4A925"/><stop offset="0.8" stop-color="#E7AC21"/><stop offset="0.86" stop-color="#F4B70F"/><stop offset="0.93" stop-color="#FCBE04"/><stop offset="1" stop-color="#FFC000"/></linearGradient><linearGradient id="paint3_linear_318_4612" x1="39.6361" y1="43.3134" x2="13.5403" y2="101.662" gradientUnits="userSpaceOnUse"><stop offset="0.01" stop-color="#C59252"/><stop offset="0.22" stop-color="#EBA31C"/><stop offset="0.34" stop-color="#FFAC00"/><stop offset="0.51" stop-color="#FDAC03"/><stop offset="0.63" stop-color="#F6AB0D"/><stop offset="0.75" stop-color="#E9AA1E"/><stop offset="0.78" stop-color="#E4A925"/><stop offset="0.8" stop-color="#E7AC21"/><stop offset="0.86" stop-color="#F4B70F"/><stop offset="0.93" stop-color="#FCBE04"/><stop offset="1" stop-color="#FFC000"/></linearGradient><linearGradient id="paint4_linear_318_4612" x1="106.071" y1="-13.0909" x2="24.273" y2="34.1424" gradientUnits="userSpaceOnUse"><stop offset="0.11" stop-color="white"/><stop offset="0.61" stop-color="#878787"/><stop offset="0.95" stop-color="white"/></linearGradient><linearGradient id="paint5_linear_318_4612" x1="246.032" y1="117.862" x2="22.5398" y2="14.5959" gradientUnits="userSpaceOnUse"><stop offset="0.01" stop-color="#001F2A"/><stop offset="0.16" stop-color="#004B5D"/><stop offset="0.2" stop-color="#00576E"/><stop offset="0.31" stop-color="#00799F"/><stop offset="0.42" stop-color="#0094C7"/><stop offset="0.52" stop-color="#00A8E3"/><stop offset="0.61" stop-color="#00B4F4"/><stop offset="0.67" stop-color="#00B8FA"/><stop offset="0.76" stop-color="#00B6F7"/><stop offset="0.83" stop-color="#01AEEC"/><stop offset="0.9" stop-color="#03A2DA"/><stop offset="0.97" stop-color="#0691C1"/><stop offset="1" stop-color="#0788B3"/></linearGradient></defs></svg>