<svg xmlns="http://www.w3.org/2000/svg" viewBox="0 0 2500 463"><defs><style> .tl93_cls-1 { fill: #424242; } .tl93_cls-1, .tl93_cls-2 { stroke-width: 0px; } .tl93_cls-2 { fill: #bad606; } </style></defs><path class="tl93_cls-2" d="m52.4 101.81h69.39v36.4h1.14c19.34 -27.3 47.21 -43.23 81.91 -43.23s63.71 12.51 77.93 44.37c15.36 -23.32 43.23 -44.37 80.77 -44.37 56.88 0 97.83 26.16 97.83 95.56v179.17h-73.37v-152.44c0 -35.83 -2.84 -65.41 -44.93 -65.41s-48.92 34.13 -48.92 67.69v149.02h-73.94v-149.59c0 -31.28 2.28 -66.55 -44.37 -66.55 -14.22 0 -49.49 9.1 -49.49 61.43v155.28H52.4V101.81Zm567.66 -7.39c84.18 0 138.79 55.74 138.79 141.06s-54.6 140.49 -138.79 140.49c-84.18 .57 -138.22 -55.74 -138.22 -140.49s54.04 -141.06 138.22 -141.06Zm0 226.38c50.05 0 65.41 -42.66 65.41 -85.32s-14.79 -85.89 -65.41 -85.89 -64.84 42.66 -64.84 85.89 14.79 85.32 64.84 85.32Zm156.42 -218.99h69.96v36.97h1.71c18.77 -30.15 50.62 -44.37 81.91 -44.37 77.93 0 97.83 43.8 97.83 110.35v164.38h-73.94v-151.3c0 -43.8 -13.08 -65.98 -47.21 -65.98 -39.82 0 -56.88 22.18 -56.88 76.79v139.92h-73.37V101.81Zm284.97 81.91c3.98 -68.82 65.98 -89.3 125.7 -89.3 53.47 0 117.17 11.94 117.17 76.22v139.36c0 24.46 2.84 48.35 9.1 59.72h-74.51c-2.84 -8.53 -4.55 -17.06 -5.12 -25.6 -23.32 24.46 -57.45 32.99 -89.87 32.99 -50.62 0 -91.01 -25.6 -91.01 -80.2 0 -60.29 45.5 -75.08 91.01 -81.34 44.93 -6.83 87.03 -5.12 87.03 -35.27s-21.61 -36.4 -47.78 -36.4c-27.87 0 -46.07 11.38 -48.92 40.38h-72.81v-.57Zm169.5 54.6c-12.51 10.81 -38.11 11.38 -60.86 15.36 -22.75 4.55 -43.23 12.51 -43.23 39.25s21.05 34.13 44.93 34.13c57.45 0 59.72 -45.5 59.72 -61.43v-27.3h-.57Z"/><path class="tl93_cls-1" d="m1333.9 0h73.37v134.24h1.14c18.2 -27.3 51.19 -39.82 84.18 -39.82 53.47 0 110.92 42.66 110.92 140.49s-57.45 141.06 -110.92 141.06c-39.25 0 -71.67 -11.94 -88.16 -41.52h-1.14v34.13h-69.96V0h.57Zm133.67 149.59c-43.23 0 -62.57 40.95 -62.57 85.89s19.34 85.32 62.57 85.32 62.57 -40.95 62.57 -85.32 -19.34 -85.89 -62.57 -85.89h0Zm160.4 34.13c3.98 -68.82 65.98 -89.3 125.7 -89.3 53.47 0 117.17 11.94 117.17 76.22v139.36c0 24.46 2.84 48.35 9.1 59.72h-74.51c-2.84 -8.53 -4.55 -17.06 -5.12 -25.6 -23.32 24.46 -57.45 32.99 -89.87 32.99 -50.62 0 -91.01 -25.6 -91.01 -80.2 0 -60.29 45.5 -75.08 91.01 -81.34 44.93 -6.83 87.03 -5.12 87.03 -35.27s-21.61 -36.4 -47.78 -36.4c-27.87 0 -46.07 11.38 -48.92 40.38h-72.81v-.57Zm169.5 54.6c-12.51 10.81 -38.11 11.38 -60.86 15.36 -22.75 4.55 -43.23 12.51 -43.23 39.25s21.05 34.13 44.93 34.13c57.45 0 59.72 -45.5 59.72 -61.43v-27.3h-.57Zm104.66 -136.51h69.96v36.97h1.71c18.77 -30.15 50.62 -44.37 81.91 -44.37 77.93 0 97.83 43.8 97.83 110.35v164.38h-73.37v-151.3c0 -43.8 -13.08 -65.98 -47.21 -65.98 -39.82 0 -56.88 22.18 -56.88 76.79v139.92h-73.37V101.81h-.57Zm544.91 361.19h-73.37v-127.41h-1.14c-17.06 29.01 -52.33 40.95 -84.18 40.95 -48.92 0 -113.19 -35.83 -113.19 -139.36 0 -73.37 38.68 -142.77 120.02 -142.77 32.99 0 64.84 11.94 81.34 41.52h1.14v-34.13h69.96v361.19h-.57Zm-135.37 -142.2c47.78 0 64.27 -40.38 64.27 -84.18s-16.5 -87.03 -62.57 -87.03 -65.41 42.66 -65.41 85.89 15.93 85.32 63.71 85.32Z"/></svg>
