<svg xmlns="http://www.w3.org/2000/svg" viewBox="0 0 60 60"><style type="text/css"> .tl98_st0{fill:#FF6A10;} .tl98_st1{fill:#FFFFFF;} </style><circle class="tl98_st0" cx="19.8" cy="30" r="7.2"/><circle class="tl98_st0" cx="40.2" cy="30" r="7.2"/><path class="tl98_st0" d="M30 0C13.4 0 0 13.4 0 30s13.4 30 30 30c16.6 0 30 -13.4 30 -30S46.6 0 30 0zM40.2 43.2c-2.6 0 -5.2 -.8 -7.2 -2.2v12.4h-6V41c-2 1.3 -4.6 2.2 -7.2 2.2c-7.3 0 -13.2 -5.9 -13.2 -13.2s5.9 -13.2 13.2 -13.2c2.6 0 5.2 .8 7.2 2.2V6.6h6V19c2 -1.3 4.6 -2.2 7.2 -2.2c7.3 0 13.2 5.9 13.2 13.2S47.5 43.2 40.2 43.2z"/><path class="tl98_st1" d="M53.4 30c0 -7.3 -5.9 -13.2 -13.2 -13.2c-2.6 0 -5.2 .8 -7.2 2.2V6.6h-6V19c-2 -1.3 -4.6 -2.2 -7.2 -2.2c-7.3 0 -13.2 5.9 -13.2 13.2s5.9 13.2 13.2 13.2c2.6 0 5.2 -.8 7.2 -2.2v12.4h6V41c2 1.3 4.6 2.2 7.2 2.2C47.5 43.2 53.4 37.3 53.4 30M27 30c0 4 -3.2 7.2 -7.2 7.2S12.6 34 12.6 30s3.2 -7.2 7.2 -7.2S27 26 27 30M47.4 30c0 4 -3.2 7.2 -7.2 7.2S33 34 33 30s3.2 -7.2 7.2 -7.2S47.4 26 47.4 30"/></svg>
