<svg version="1" xmlns="http://www.w3.org/2000/svg" viewBox="0 0 84 125" fill="rgba(246, 248, 249, 0.25)" id="svg2727" xmlnssvg="http://www.w3.org/2000/svg"><path d="M 8.54004,40.72754 C 10.10254,40.03907 11.66504,39.50196 13.22754,39.16504 C 16.09863,25.4541 28.24219,15.1709 42.79785,15.1709 C 57.36328,15.1709 69.51172,25.46875 72.37793,39.17481 C 76.8457,40.02442 80.54199,41.83106 83.42285,44.52149 C 83.54004,41.88965 83.43262,39.35547 83.12012,36.96778 C 81.2793,16.25489 63.91113,0 42.73438,0 C 20.93262,0 3.18359,17.28028 2.26074,38.88184 C 2.13379,40.74707 2.09473,42.69043 2.16309,44.72168 C 3.99414,43.17871 6.08399,41.79199 8.54004,40.72754" id="path2513" style="fill: rgb(227, 0, 27); fill-opacity: 1; fill-rule: nonzero; stroke: none;"></path><path d="M 66.46484,43.79883 L 17.88086,43.79883 C 15.54199,43.79883 13.12012,44.34082 10.625,45.45899 C 8.21777,46.50879 6.24512,47.77832 4.66309,49.29688 C 1.65039,52.91992 0.10742,58.21778 0,65.19043 L 0,103.16895 C 0.10742,110.15625 1.65039,115.44922 4.66309,119.05274 C 6.24512,120.59571 8.21777,121.86524 10.625,122.92481 C 13.12012,124.01856 15.54199,124.57032 17.88086,124.57032 L 66.46484,124.57032 C 79.01367,124.45801 85.39551,117.57324 85.5957,103.96485 L 85.5957,64.39453 C 85.39551,50.7666 79.01367,43.90625 66.46484,43.79883" id="path2515" style="fill: rgb(227, 0, 27); fill-opacity: 1; fill-rule: nonzero; stroke: none;"></path></svg>