
<svg width="24" height="24" viewBox="0 0 24 24" fill="none" xmlns="http://www.w3.org/2000/svg">
<path d="M6.04838 8.03922C6.12819 7.67005 6.20491 7.33028 6.21894 7.2841C6.2376 7.22255 6.47769 7.2002 7.11911 7.2002C7.60017 7.2002 7.99378 7.21704 7.99378 7.23758C7.99378 7.25819 7.96028 7.408 7.91934 7.57057L7.8449 7.86625L6.759 7.90498L6.55065 8.9118L6.19256 8.93228C5.8744 8.95047 5.83829 8.93926 5.8689 8.83159C5.88782 8.76494 5.96857 8.40839 6.04838 8.03922Z" fill="#FB0201"/>
<path d="M8.28631 7.75395C8.3045 7.68931 8.33914 7.53836 8.3633 7.41834L8.4072 7.2002H10.1881L10.0293 7.95532C9.80481 9.02282 9.84891 8.94537 9.46598 8.94537C9.28388 8.94537 9.13594 8.92275 9.13728 8.89502C9.13856 8.8673 9.1834 8.66345 9.23689 8.44195C9.38181 7.84188 9.40463 7.87141 8.79476 7.87141C8.31115 7.87141 8.25678 7.85886 8.28631 7.75395Z" fill="#FB0201"/>
<path fill-rule="evenodd" clip-rule="evenodd" d="M10.9877 7.38455C10.9371 7.55095 10.209 10.9632 10.209 11.0343C10.209 11.0666 10.4042 11.093 10.6427 11.093H11.0764L11.1406 10.8413C11.1759 10.7029 11.2249 10.4839 11.2494 10.3547L11.26 10.2986C11.3327 9.91445 11.3631 9.75378 11.4599 9.67882C11.5295 9.62492 11.6334 9.61533 11.8121 9.59885L11.8484 9.59548C12.3723 9.54662 12.7028 9.41613 12.9333 9.16738C13.2848 8.78814 13.4418 8.12102 13.2742 7.71969C13.1139 7.33609 12.9037 7.26709 11.8949 7.26709C11.1234 7.26709 11.0194 7.28058 10.9877 7.38455ZM11.7088 8.94515C12.1387 8.94515 12.3808 8.67518 12.3449 8.23587C12.3239 7.97825 12.3165 7.97141 12.0444 7.95154L11.7654 7.9312L11.6894 8.28601C11.6475 8.48113 11.5961 8.70928 11.5751 8.79298C11.5428 8.92145 11.5636 8.94515 11.7088 8.94515Z" fill="#02337F"/>
<path fill-rule="evenodd" clip-rule="evenodd" d="M13.3973 8.98729C12.9543 9.93163 12.5534 10.7931 12.5065 10.9016L12.4212 11.0989L13.3792 11.0595L13.6416 10.3547H14.5719V11.093H15.5275L15.4875 10.5393C15.4654 10.2347 15.4278 9.37391 15.4038 8.62631L15.3603 7.26709L14.2027 7.27024L13.3973 8.98729ZM14.6051 9.19685L14.5604 9.68348H14.2642C14.1012 9.68348 13.9678 9.65495 13.9678 9.62012C13.9678 9.56118 14.3527 8.58604 14.5256 8.2068C14.5967 8.05094 14.6039 8.06282 14.6259 8.3746C14.639 8.55919 14.6296 8.92916 14.6051 9.19685Z" fill="#02337F"/>
<path d="M16.0094 8.49066C15.8833 7.89005 15.7801 7.36898 15.7801 7.3328C15.7801 7.29589 15.9967 7.26709 16.2749 7.26709H16.7696L16.8175 7.94187C16.8532 8.44568 16.8852 8.60013 16.9439 8.5514C16.9871 8.51556 17.1569 8.2119 17.3212 7.87662L17.62 7.26709H18.6002L18.2552 7.82085C18.0655 8.12545 17.7422 8.63134 17.5368 8.94514C17.2059 9.45057 17.1435 9.60374 16.9893 10.2876L16.8153 11.0595L16.3648 11.0793C16.1171 11.0902 15.9158 11.0751 15.9175 11.0458C15.9192 11.0164 15.9922 10.6752 16.0797 10.2876L16.2387 9.5828L16.0094 8.49066Z" fill="#02337F"/>
<path d="M7.68446 9.75048C7.0317 9.75048 7.0513 9.78229 7.22729 9.00858L7.33334 8.54228L7.89851 8.54228C8.55235 8.54228 8.52899 8.50503 8.35568 9.27237L8.24775 9.75048H7.68446Z" fill="#02337F"/>
<path d="M5.54723 10.3929C5.62825 10.008 5.71403 9.61534 5.73786 9.52036C5.77719 9.36377 5.81243 9.34766 6.11556 9.34766C6.29947 9.34766 6.44882 9.37028 6.44747 9.398C6.4462 9.42572 6.40136 9.62957 6.34787 9.85107C6.20295 10.4511 6.18013 10.4216 6.79 10.4216C7.27361 10.4216 7.32798 10.4342 7.29845 10.5391C7.28026 10.6036 7.24562 10.7547 7.22146 10.8747L7.17756 11.0928H5.3999L5.54723 10.3929Z" fill="#FB0201"/>
<path d="M8.91424 9.95175C8.96216 9.71179 9.01532 9.47774 9.03244 9.43156C9.05171 9.37961 9.19266 9.34766 9.40255 9.34766C9.73608 9.34766 9.74078 9.35054 9.69668 9.52627C9.67205 9.62453 9.58694 10.0097 9.50766 10.3821L9.36342 11.0593L8.47728 11.078C7.98984 11.0883 7.59106 11.079 7.59106 11.0574C7.59106 11.0357 7.62456 10.885 7.6655 10.7224L7.73994 10.4268L8.82711 10.388L8.91424 9.95175Z" fill="#FB0201"/>
<path d="M9.94024 11.6358C9.47878 11.7418 8.34609 11.9928 7.42317 12.1936L5.74512 12.5587L7.3057 12.5643C8.16406 12.5674 8.86629 12.5861 8.86629 12.6058C8.86629 12.6256 8.82413 12.7086 8.77259 12.7904C8.69231 12.9177 8.16547 13.8942 6.44251 17.109C6.26196 17.4458 6.11429 17.7341 6.11429 17.7496C6.11429 17.7652 6.87699 17.6778 7.80912 17.5553C10.0025 17.2672 13.2159 16.8493 15.0415 16.6148L16.4846 16.4294L12.4 16.4121C8.56551 16.3959 8.3181 16.3877 8.35972 16.2791C8.38415 16.2155 8.9914 15.111 9.70914 13.8247C10.4269 12.5384 11.0142 11.4731 11.0142 11.4574C11.0142 11.4041 10.7809 11.4429 9.94024 11.6358Z" fill="#FB0201"/>
<path fill-rule="evenodd" clip-rule="evenodd" d="M10.8873 12.4214C10.8159 12.5611 10.5614 13.0973 10.3215 13.6128C10.0817 14.1283 9.74773 14.8445 9.57946 15.2044L9.27345 15.8589L10.1752 15.8574L10.4437 15.1541H11.3162L11.3568 15.8589H12.236L12.1971 15.4058C12.1757 15.1566 12.1388 14.3259 12.115 13.56L12.0718 12.1672H11.0169L10.8873 12.4214ZM11.3498 13.7445V14.5164H11.0478C10.8816 14.5164 10.7457 14.4878 10.7457 14.4527C10.7457 14.3738 11.2964 12.9726 11.3274 12.9726C11.3397 12.9726 11.3498 13.32 11.3498 13.7445Z" fill="#FB0201"/>
<path fill-rule="evenodd" clip-rule="evenodd" d="M13.0607 13.174C13.1581 12.7125 13.25 12.2973 13.265 12.2511C13.2845 12.1908 13.4958 12.1673 14.0158 12.1676C14.9249 12.168 15.2086 12.2421 15.3803 12.5237C15.5373 12.7811 15.5438 12.9731 15.4108 13.4211C15.218 14.0705 14.8803 14.3253 14.1393 14.3809C14.0914 14.3844 14.0484 14.3868 14.0097 14.389C13.8778 14.3964 13.7957 14.401 13.7369 14.4403C13.6398 14.5053 13.606 14.6647 13.5165 15.0873L13.5164 15.0877C13.5006 15.1627 13.4829 15.2462 13.4628 15.3387L13.35 15.8589H12.9131C12.4774 15.8589 12.4764 15.8585 12.5197 15.6861C12.5644 15.5078 12.7528 14.633 13.0607 13.174ZM14.5309 12.9446C14.6815 13.337 14.4206 13.7781 14.0377 13.7781C13.8056 13.7781 13.8012 13.759 13.9097 13.2188L13.9861 12.8384H14.2381C14.4061 12.8384 14.5038 12.8738 14.5309 12.9446Z" fill="#FB0201"/>
<path fill-rule="evenodd" clip-rule="evenodd" d="M16.0138 12.3182C15.9934 12.4012 15.816 13.2243 15.6196 14.1473L15.2625 15.8253L15.6632 15.8455C15.8836 15.8566 16.0759 15.8536 16.0906 15.839C16.1053 15.8243 16.1855 15.498 16.2687 15.114L16.4201 14.4158L16.9223 14.3786C17.1984 14.3581 17.4847 14.3078 17.5586 14.2669C18.1362 13.9464 18.439 13.0266 18.1323 12.5237C17.9608 12.2423 17.6769 12.168 16.7712 12.1676C16.0798 12.1672 16.0494 12.1732 16.0138 12.3182ZM16.7813 13.7781C17.1119 13.7781 17.3366 13.5142 17.3107 13.1565C17.2903 12.8751 17.287 12.8717 17.014 12.8517C16.7414 12.8318 16.7373 12.8349 16.6969 13.0867C16.6744 13.227 16.6363 13.44 16.6123 13.5599C16.5703 13.7694 16.5771 13.7781 16.7813 13.7781Z" fill="#FB0201"/>
</svg>