<svg width="24" height="24" viewBox="0 0 24 24" fill="none" xmlns="http://www.w3.org/2000/svg">
<path d="M10.2097 5.41602C10.3308 5.39217 10.4792 5.39485 10.6111 5.42285C10.764 5.45533 10.9089 5.52029 11.031 5.61133C11.0927 5.65827 11.7025 6.3457 12.6375 7.42285L14.1472 9.16309H14.8337C15.6017 9.16333 15.6653 9.17236 15.825 9.29492C16.0379 9.45847 16.0871 9.59425 16.1042 10.0684C16.1154 10.377 16.1131 10.4162 16.0828 10.4746C16.0174 10.6005 15.9978 10.6035 15.2791 10.6035H14.6375L14.6277 18.3877L14.5847 18.457C14.5007 18.5921 14.4643 18.5996 13.8982 18.5996C13.4415 18.5996 13.3889 18.5965 13.2849 18.5615C13.0534 18.4835 12.8955 18.3399 12.7849 18.1064L12.7253 17.9814L12.7205 17.0068C12.7173 16.4231 12.7083 16.0332 12.698 16.0332C12.6885 16.0333 12.6372 16.0502 12.5837 16.0713C12.4233 16.1346 12.0114 16.2337 11.783 16.2637C11.516 16.2986 11.0156 16.2989 10.7585 16.2646C9.62585 16.1138 8.85748 15.4052 8.57983 14.2549C8.46755 13.7896 8.46488 13.7427 8.45581 12.124L8.448 10.6436L7.97339 10.6377C7.5076 10.632 7.49792 10.6312 7.39722 10.584C7.25623 10.5179 7.17521 10.4409 7.10132 10.3047L7.03784 10.1885L7.03198 9.77832C7.02542 9.3203 7.03436 9.27554 7.14429 9.20898C7.20257 9.17373 7.26439 9.17307 9.69019 9.16406L12.1755 9.1543L10.5759 7.62305C9.70097 6.78519 8.97452 6.08166 8.95483 6.05371C8.92719 6.0067 8.92442 5.88675 8.94995 5.83887C8.9604 5.81931 8.99273 5.79112 9.02124 5.77637C9.08416 5.74473 10.0905 5.43953 10.2097 5.41602ZM10.3513 10.6777L10.3572 12.1689C10.3631 13.6416 10.3637 13.6619 10.4041 13.8076C10.5282 14.2558 10.7681 14.5071 11.1833 14.623C11.3528 14.6703 11.9189 14.671 12.1443 14.624C12.3402 14.5831 12.641 14.4918 12.6843 14.46C12.7151 14.4373 12.7157 14.337 12.7039 12.5566L12.6921 10.6777H10.3513Z" fill="#5F259F"/>
</svg>
