<svg width="20" height="20" viewBox="0 0 20 20" fill="none" xmlns="http://www.w3.org/2000/svg">
<mask id="mask0_525_47557" style="mask-type:alpha" maskUnits="userSpaceOnUse" x="0" y="0" width="20" height="20">
<rect width="20" height="20" fill="#D9D9D9"/>
</mask>
<g mask="url(#mask0_525_47557)">
<path d="M2.08325 5.84954V2.0835H5.84929V3.3335H3.33325V5.84954H2.08325ZM2.08325 17.9168V14.1508H3.33325V16.6668H5.84929V17.9168H2.08325ZM14.1505 17.9168V16.6668H16.6666V14.1508H17.9166V17.9168H14.1505ZM16.6666 5.84954V3.3335H14.1505V2.0835H17.9166V5.84954H16.6666ZM14.351 14.3512H15.4808V15.481H14.351V14.3512ZM14.351 12.0914H15.4808V13.2212H14.351V12.0914ZM13.221 13.2212H14.351V14.3512H13.221V13.2212ZM12.0912 14.3512H13.221V15.481H12.0912V14.3512ZM10.9614 13.2212H12.0912V14.3512H10.9614V13.2212ZM13.221 10.9616H14.351V12.0914H13.221V10.9616ZM12.0912 12.0914H13.221V13.2212H12.0912V12.0914ZM10.9614 10.9616H12.0912V12.0914H10.9614V10.9616ZM15.4808 4.51933V9.0387H10.9614V4.51933H15.4808ZM9.03846 10.9616V15.481H4.51909V10.9616H9.03846ZM9.03846 4.51933V9.0387H4.51909V4.51933H9.03846ZM8.04471 14.4872V11.9554H5.51284V14.4872H8.04471ZM8.04471 8.04496V5.51308H5.51284V8.04496H8.04471ZM14.487 8.04496V5.51308H11.9551V8.04496H14.487Z" fill="#717784"/>
</g>
</svg>