<svg width="57" height="56" viewBox="0 0 57 56" fill="none" xmlns="http://www.w3.org/2000/svg">
<g clip-path="url(#clip0_288_989)">
<path d="M19.3938 55.1326L19.3783 55.1285C18.8473 54.9862 18.3144 54.825 17.7949 54.6497C17.5887 54.5801 17.4187 54.4315 17.3221 54.2366C17.2255 54.0416 17.2104 53.8163 17.28 53.6101C17.3495 53.404 17.4981 53.2339 17.6931 53.1374C17.8881 53.0408 18.1134 53.0256 18.3195 53.0952C18.8063 53.2596 19.3054 53.4104 19.803 53.5437L19.8184 53.5479C20.0285 53.6042 20.2077 53.7417 20.3165 53.9301C20.4253 54.1185 20.4548 54.3424 20.3984 54.5526C20.3421 54.7627 20.2046 54.9419 20.0162 55.0507C19.8278 55.1594 19.6039 55.1889 19.3938 55.1326ZM22.5649 55.7642C22.3636 55.7103 22.1903 55.5818 22.0803 55.4047C21.9703 55.2277 21.9318 55.0154 21.9727 54.811C22.0135 54.6066 22.1307 54.4254 22.3003 54.3043C22.4699 54.1831 22.6793 54.1311 22.8859 54.1588C23.403 54.2272 23.9222 54.2787 24.4426 54.3132C24.6585 54.3291 24.8594 54.4297 25.0014 54.5931C25.1434 54.7565 25.2151 54.9694 25.2008 55.1854C25.1866 55.4014 25.0875 55.603 24.9252 55.7463C24.7629 55.8895 24.5505 55.9628 24.3344 55.9502C23.7782 55.9133 23.2233 55.8583 22.6706 55.7852C22.635 55.7805 22.5996 55.7735 22.5649 55.7642ZM14.8549 53.4329C14.8032 53.419 14.753 53.4002 14.7049 53.3765C14.2045 53.1308 13.7123 52.8688 13.2291 52.5908C13.1348 52.5376 13.0519 52.4662 12.9853 52.3808C12.9186 52.2954 12.8696 52.1976 12.841 52.0931C12.8123 51.9887 12.8047 51.8796 12.8184 51.7721C12.8322 51.6647 12.8671 51.561 12.9211 51.4672C12.9751 51.3733 13.0472 51.291 13.1332 51.2251C13.2191 51.1592 13.3173 51.111 13.422 51.0833C13.5267 51.0556 13.6359 51.0488 13.7432 51.0635C13.8505 51.0782 13.9539 51.114 14.0473 51.1688C14.4994 51.4289 14.9599 51.6741 15.428 51.9039C15.6111 51.9936 15.7542 52.1482 15.8296 52.3376C15.9049 52.527 15.907 52.7377 15.8354 52.9286C15.7639 53.1195 15.6238 53.2769 15.4426 53.3701C15.2613 53.4634 15.0518 53.4857 14.8549 53.4329ZM27.4109 55.9245C27.2232 55.8742 27.0594 55.7588 26.9488 55.599C26.8381 55.4391 26.7878 55.2452 26.8069 55.0517C26.8259 54.8583 26.913 54.6779 27.0527 54.5426C27.1923 54.4074 27.3754 54.3262 27.5694 54.3134C28.0889 54.279 28.6072 54.2277 29.1233 54.1594C29.3383 54.1323 29.5553 54.1913 29.7268 54.3236C29.8984 54.4559 30.0107 54.6507 30.0392 54.8655C30.0677 55.0803 30.01 55.2976 29.8788 55.4701C29.7476 55.6425 29.5535 55.756 29.3389 55.7858C28.787 55.8588 28.2329 55.9137 27.6774 55.9505C27.5878 55.9565 27.4977 55.9477 27.4109 55.9245ZM10.7324 50.8761C10.6285 50.8482 10.5311 50.8002 10.4459 50.7346C10.003 50.3948 9.57133 50.0407 9.1516 49.6727C9.07061 49.6016 9.0044 49.5153 8.95676 49.4187C8.90912 49.3221 8.88097 49.217 8.87393 49.1095C8.86689 49.0021 8.88109 48.8942 8.91573 48.7922C8.95036 48.6902 9.00474 48.596 9.07578 48.515C9.14681 48.434 9.2331 48.3678 9.32972 48.3202C9.42633 48.2725 9.53139 48.2444 9.63889 48.2374C9.74638 48.2303 9.85421 48.2445 9.95622 48.2792C10.0582 48.3138 10.1524 48.3682 10.2334 48.4392C10.6261 48.7835 11.0299 49.1148 11.4442 49.4326C11.5949 49.5481 11.7008 49.7123 11.744 49.8972C11.7871 50.0821 11.7648 50.2762 11.6808 50.4465C11.5969 50.6168 11.4565 50.7527 11.2835 50.831C11.1106 50.9093 10.9157 50.9252 10.7324 50.8761ZM32.1892 55.1314C32.0148 55.0848 31.8606 54.9819 31.7506 54.8388C31.6406 54.6956 31.5808 54.5202 31.5806 54.3396C31.5805 54.1591 31.6399 53.9835 31.7496 53.8401C31.8593 53.6968 32.0133 53.5936 32.1877 53.5466C32.691 53.4111 33.1899 53.2592 33.6833 53.0911C33.8893 53.021 34.1147 53.0355 34.3099 53.1315C34.5051 53.2275 34.6543 53.3971 34.7244 53.6031C34.7946 53.809 34.7801 54.0344 34.6841 54.2296C34.5881 54.4249 34.4184 54.574 34.2125 54.6441C33.6851 54.8237 33.152 54.986 32.614 55.1309C32.4749 55.1685 32.3284 55.1687 32.1892 55.1314ZM7.19161 47.5594C7.03508 47.5175 6.89457 47.4299 6.78796 47.3079C6.42038 46.8884 6.06653 46.4571 5.72698 46.0147C5.66019 45.9293 5.61098 45.8316 5.58219 45.7271C5.5534 45.6226 5.54561 45.5134 5.55925 45.4059C5.57289 45.2984 5.60771 45.1946 5.66168 45.1007C5.71566 45.0067 5.78773 44.9243 5.87372 44.8583C5.95971 44.7924 6.05792 44.7441 6.16267 44.7163C6.26743 44.6885 6.37666 44.6817 6.48404 44.6964C6.59143 44.7111 6.69484 44.7469 6.78831 44.8018C6.88178 44.8566 6.96345 44.9295 7.0286 45.0161C7.34639 45.4302 7.67757 45.8339 8.02162 46.2265C8.13766 46.3589 8.20803 46.5251 8.22234 46.7006C8.23665 46.876 8.19413 47.0514 8.10108 47.2009C8.00802 47.3503 7.86936 47.4658 7.70558 47.5304C7.54181 47.595 7.36161 47.6051 7.19161 47.5594ZM36.7231 53.42C36.5619 53.3769 36.4177 53.2857 36.3097 53.1585C36.2017 53.0313 36.1351 52.8743 36.1187 52.7083C36.1022 52.5422 36.1368 52.3752 36.2178 52.2293C36.2988 52.0834 36.4223 51.9657 36.5719 51.8919C37.0397 51.6609 37.4999 51.4147 37.9518 51.1539C38.1401 51.0462 38.3635 51.0176 38.5729 51.0742C38.7823 51.1308 38.9608 51.268 39.0693 51.4559C39.1778 51.6438 39.2074 51.8669 39.1517 52.0766C39.096 52.2863 38.9596 52.4654 38.7722 52.5747C38.2895 52.8533 37.7978 53.1162 37.2981 53.363C37.1197 53.4514 36.9152 53.4716 36.723 53.4199L36.7231 53.42ZM4.36727 43.6181C4.26325 43.5904 4.16573 43.5424 4.08029 43.4769C3.99486 43.4114 3.9232 43.3297 3.86942 43.2364C3.59047 42.7539 3.32722 42.2624 3.08008 41.7628C3.03172 41.6662 3.00293 41.561 2.99537 41.4532C2.9878 41.3454 3.00161 41.2372 3.03599 41.1347C3.07037 41.0323 3.12465 40.9376 3.19571 40.8562C3.26677 40.7748 3.35321 40.7083 3.45007 40.6604C3.54693 40.6125 3.6523 40.5842 3.76012 40.5772C3.86795 40.5701 3.9761 40.5844 4.07838 40.6193C4.18065 40.6542 4.27503 40.7089 4.35609 40.7803C4.43714 40.8518 4.50329 40.9386 4.55072 41.0356C4.78203 41.5033 5.02847 41.9634 5.28965 42.4151C5.37089 42.5556 5.40864 42.717 5.39811 42.879C5.38757 43.041 5.32924 43.1961 5.23048 43.3249C5.13172 43.4537 4.99698 43.5503 4.84331 43.6025C4.68963 43.6547 4.52404 43.6602 4.36727 43.6181ZM40.8395 50.86C40.6917 50.8202 40.5579 50.7399 40.4533 50.6281C40.3487 50.5163 40.2776 50.3774 40.2478 50.2272C40.218 50.077 40.2309 49.9215 40.2849 49.7783C40.339 49.635 40.432 49.5097 40.5536 49.4166C40.9679 49.099 41.3718 48.768 41.7646 48.4242C41.9283 48.2809 42.1423 48.2085 42.3594 48.2229C42.5764 48.2374 42.7789 48.3374 42.9222 48.5011C43.0655 48.6648 43.1379 48.8788 43.1235 49.0959C43.1091 49.3129 43.009 49.5154 42.8453 49.6587C42.4256 50.026 41.9941 50.3795 41.5515 50.7187C41.4516 50.7954 41.3355 50.848 41.212 50.8725C41.0885 50.897 40.9611 50.8927 40.8395 50.86ZM2.36181 39.2058C2.23156 39.1711 2.11189 39.1048 2.0134 39.0128C1.91491 38.9207 1.84063 38.8058 1.79716 38.6783C1.61722 38.151 1.45453 37.6179 1.30934 37.08C1.25397 36.8704 1.28385 36.6474 1.39244 36.4597C1.50104 36.272 1.67951 36.135 1.88886 36.0785C2.0982 36.0221 2.32138 36.0508 2.50961 36.1584C2.69784 36.266 2.83581 36.4438 2.89335 36.6528C3.02917 37.1561 3.18139 37.6548 3.34976 38.1481C3.39777 38.2887 3.40668 38.4398 3.37553 38.5851C3.34438 38.7304 3.27434 38.8645 3.1729 38.9732C3.07145 39.0818 2.94241 39.1608 2.79956 39.2018C2.6567 39.2427 2.5054 39.2441 2.36181 39.2058ZM44.3822 47.5477C44.2475 47.5114 44.1244 47.4414 44.0243 47.3443C43.9242 47.2473 43.8505 47.1263 43.8102 46.9928C43.7698 46.8594 43.7642 46.7178 43.7937 46.5816C43.8232 46.4453 43.887 46.3188 43.9789 46.214C44.3235 45.8216 44.6551 45.418 44.9732 45.0039C45.0383 44.9169 45.1199 44.8438 45.2135 44.7887C45.307 44.7336 45.4106 44.6976 45.5181 44.6828C45.6257 44.668 45.7351 44.6747 45.8401 44.7025C45.945 44.7303 46.0434 44.7787 46.1295 44.8448C46.2156 44.911 46.2878 44.9935 46.3417 45.0877C46.3957 45.1819 46.4304 45.2859 46.4439 45.3937C46.4573 45.5014 46.4493 45.6107 46.4202 45.7153C46.3911 45.8199 46.3415 45.9177 46.2743 46.003C45.9343 46.4458 45.5798 46.8772 45.2115 47.2967C45.1104 47.4118 44.9792 47.4963 44.8327 47.5406C44.6861 47.585 44.53 47.5874 44.3822 47.5477ZM1.25337 34.4897C1.09676 34.4477 0.956082 34.3603 0.849105 34.2385C0.742129 34.1167 0.67365 33.9659 0.652313 33.8051C0.578974 33.2533 0.523737 32.6992 0.48669 32.1438C0.478749 32.0359 0.492238 31.9274 0.526382 31.8248C0.560525 31.7221 0.614648 31.6272 0.685632 31.5455C0.756616 31.4638 0.843059 31.397 0.93998 31.3489C1.0369 31.3007 1.14239 31.2723 1.25036 31.2651C1.35833 31.2579 1.46666 31.2721 1.5691 31.307C1.67154 31.3419 1.76607 31.3967 1.84724 31.4682C1.92842 31.5398 1.99463 31.6267 2.04207 31.724C2.08951 31.8212 2.11724 31.9269 2.12366 32.0349C2.15832 32.5544 2.21002 33.0727 2.27867 33.5888C2.29639 33.7226 2.28083 33.8587 2.2334 33.985C2.18596 34.1114 2.10811 34.2241 2.00672 34.3132C1.90533 34.4023 1.78355 34.465 1.65215 34.4957C1.52074 34.5265 1.38378 34.5244 1.25337 34.4897ZM47.2097 43.6042C47.0882 43.5716 46.9758 43.5115 46.8812 43.4285C46.7867 43.3456 46.7124 43.242 46.6642 43.1258C46.616 43.0097 46.5951 42.8839 46.6032 42.7584C46.6113 42.6329 46.6481 42.5109 46.7108 42.4018C46.9711 41.95 47.2166 41.4897 47.4468 41.0217C47.5435 40.8277 47.7131 40.6798 47.9185 40.6104C48.1239 40.5411 48.3484 40.5558 48.5429 40.6515C48.7375 40.7471 48.8863 40.9159 48.9567 41.1209C49.0272 41.3259 49.0137 41.5505 48.9191 41.7456C48.673 42.2459 48.4106 42.738 48.1322 43.2211C48.042 43.3776 47.9027 43.4999 47.7359 43.5692C47.5691 43.6384 47.3842 43.6508 47.2097 43.6042ZM49.2056 39.1864C49.1884 39.1818 49.1713 39.1767 49.1542 39.1708C48.9481 39.1011 48.7782 38.9524 48.6818 38.7574C48.5854 38.5623 48.5704 38.337 48.6401 38.131C48.8061 37.6398 48.9588 37.1359 49.0936 36.6329L49.11 36.5716C49.1663 36.3615 49.3038 36.1823 49.4922 36.0735C49.6806 35.9647 49.9045 35.9353 50.1147 35.9916C50.3248 36.0479 50.504 36.1854 50.6128 36.3738C50.7216 36.5622 50.751 36.7861 50.6947 36.9962L50.6783 37.0575C50.5345 37.5943 50.3716 38.1325 50.1941 38.6566C50.1274 38.8539 49.9881 39.0184 49.8046 39.1168C49.621 39.2152 49.4069 39.2401 49.2056 39.1864ZM1.8793 24.8639C1.66916 24.8076 1.48998 24.6702 1.3812 24.4817C1.27242 24.2933 1.24294 24.0694 1.29925 23.8593L1.30531 23.8367C1.44827 23.3031 1.60773 22.7756 1.78108 22.2605C1.85134 22.0554 1.99996 21.8865 2.19444 21.7906C2.38892 21.6947 2.61344 21.6798 2.81893 21.749C3.02441 21.8182 3.19414 21.9659 3.29101 22.1599C3.38788 22.3539 3.40401 22.5783 3.33588 22.7842C3.17261 23.2691 3.02464 23.759 2.89219 24.2533L2.88408 24.2839C2.82777 24.4941 2.69029 24.6732 2.50188 24.782C2.31346 24.8908 2.08945 24.9203 1.8793 24.8639ZM50.3146 34.4027C50.1229 34.351 49.9564 34.2315 49.846 34.0663C49.7357 33.9012 49.689 33.7016 49.7146 33.5047C49.7819 32.9874 49.8323 32.468 49.8658 31.9474C49.8797 31.7303 49.9793 31.5276 50.1427 31.384C50.3061 31.2403 50.5199 31.1674 50.737 31.1814C50.9541 31.1953 51.1568 31.2949 51.3004 31.4583C51.4441 31.6217 51.517 31.8354 51.503 32.0526C51.4673 32.6088 51.4134 33.1637 51.3414 33.7164C51.3275 33.8232 51.2927 33.9262 51.239 34.0196C51.1853 34.113 51.1137 34.1948 51.0283 34.2605C50.9429 34.3262 50.8454 34.3745 50.7414 34.4025C50.6374 34.4305 50.5289 34.4378 50.4221 34.4239C50.3858 34.4192 50.3499 34.4121 50.3146 34.4027ZM3.57723 20.3236C3.46021 20.2922 3.35157 20.2354 3.25912 20.157C3.16667 20.0787 3.0927 19.9809 3.04251 19.8707C2.99232 19.7604 2.96716 19.6404 2.96883 19.5192C2.9705 19.3981 2.99896 19.2788 3.05217 19.1699C3.29758 18.6693 3.55937 18.1768 3.83713 17.6933C3.94641 17.5064 4.12515 17.3703 4.33437 17.3147C4.54359 17.259 4.76632 17.2883 4.95402 17.3962C5.14172 17.5041 5.27916 17.6818 5.33639 17.8906C5.39361 18.0994 5.36597 18.3223 5.2595 18.5108C4.99981 18.9631 4.75497 19.4237 4.52539 19.8919C4.44177 20.0625 4.30153 20.1989 4.12861 20.2776C3.95569 20.3563 3.76083 20.3725 3.57723 20.3236ZM50.4659 29.5578C50.3007 29.5134 50.1534 29.4185 50.0448 29.2864C49.9361 29.1542 49.8715 28.9914 49.8599 28.8207C49.8245 28.3012 49.7722 27.7831 49.7029 27.267C49.6739 27.0514 49.7318 26.8331 49.8638 26.6601C49.9958 26.4872 50.1912 26.3737 50.4068 26.3448C50.6224 26.3158 50.8407 26.3737 51.0137 26.5057C51.1866 26.6377 51.3 26.833 51.329 27.0487C51.403 27.6004 51.459 28.1543 51.4967 28.7097C51.5055 28.8399 51.4831 28.9703 51.4313 29.0902C51.3796 29.21 51.3 29.3157 51.1992 29.3987C51.0984 29.4816 50.9793 29.5393 50.8517 29.5669C50.7242 29.5946 50.5919 29.5914 50.4658 29.5577L50.4659 29.5578ZM6.12996 16.2004C5.9998 16.1654 5.88028 16.0988 5.78194 16.0066C5.68361 15.9144 5.60949 15.7994 5.56614 15.6718C5.52279 15.5441 5.51154 15.4078 5.53338 15.2748C5.55522 15.1418 5.60948 15.0162 5.69137 14.9091C6.03081 14.466 6.38472 14.0341 6.75251 13.6142C6.89619 13.4517 7.09835 13.3528 7.31479 13.339C7.53122 13.3252 7.74431 13.3977 7.90745 13.5406C8.07059 13.6835 8.17051 13.8852 8.18535 14.1015C8.20019 14.3179 8.12874 14.5313 7.98664 14.6951C7.64259 15.0881 7.3115 15.4921 6.99392 15.9067C6.89515 16.0357 6.76032 16.1324 6.60652 16.1847C6.45272 16.237 6.28686 16.2425 6.12996 16.2004ZM49.6645 24.7819C49.5256 24.7448 49.3989 24.6719 49.297 24.5705C49.1952 24.469 49.1218 24.3426 49.0842 24.2038C48.9478 23.7007 48.7949 23.2021 48.6259 22.709C48.591 22.6071 48.5765 22.4993 48.5832 22.3917C48.59 22.2842 48.6178 22.1791 48.6652 22.0823C48.7125 21.9856 48.7785 21.8991 48.8593 21.8278C48.9401 21.7566 49.0341 21.7019 49.136 21.667C49.2379 21.6321 49.3457 21.6176 49.4532 21.6243C49.5607 21.631 49.6659 21.6589 49.7626 21.7062C49.8594 21.7536 49.9459 21.8196 50.0171 21.9003C50.0884 21.9811 50.143 22.0752 50.178 22.1771C50.3585 22.7041 50.5219 23.2368 50.6678 23.7745C50.7055 23.9136 50.7058 24.0602 50.6688 24.1995C50.6319 24.3388 50.5588 24.4659 50.4571 24.568C50.3554 24.6701 50.2286 24.7436 50.0895 24.7812C49.9503 24.8187 49.8037 24.819 49.6645 24.7819ZM9.44375 12.6577C9.30042 12.6191 9.17025 12.5424 9.0671 12.4356C8.96395 12.3289 8.89169 12.1961 8.85802 12.0516C8.82436 11.907 8.83054 11.756 8.87591 11.6146C8.92128 11.4733 9.00415 11.3469 9.11568 11.249C9.53485 10.8811 9.96584 10.527 10.408 10.1871C10.5805 10.0545 10.7986 9.99591 11.0144 10.0242C11.2301 10.0524 11.4258 10.1652 11.5583 10.3377C11.6909 10.5103 11.7495 10.7284 11.7212 10.9441C11.693 11.1598 11.5802 11.3555 11.4077 11.4881C10.9938 11.8062 10.5904 12.1377 10.1981 12.482C10.0966 12.5712 9.9746 12.6339 9.84299 12.6646C9.71138 12.6952 9.57423 12.6929 9.44375 12.6577ZM47.9442 20.2509C47.8316 20.2209 47.7267 20.1672 47.6366 20.0934C47.5464 20.0197 47.473 19.9275 47.4214 19.823C47.1894 19.3556 46.9424 18.8958 46.6807 18.4444C46.5726 18.2562 46.5434 18.0329 46.5996 17.8233C46.6558 17.6137 46.7927 17.4349 46.9804 17.326C47.1682 17.2172 47.3914 17.1871 47.6012 17.2425C47.811 17.2978 47.9904 17.434 48.1 17.6213C48.3795 18.1035 48.6434 18.5946 48.8912 19.0938C48.9613 19.2352 48.9892 19.3938 48.9715 19.5506C48.9537 19.7075 48.8912 19.8558 48.7912 19.978C48.6913 20.1001 48.5582 20.1908 48.408 20.2392C48.2578 20.2876 48.0967 20.2917 47.9442 20.2509ZM13.384 9.83007C13.2273 9.78809 13.0867 9.70064 12.9797 9.57877C12.8728 9.45689 12.8044 9.30606 12.7831 9.14532C12.7618 8.98458 12.7887 8.82114 12.8603 8.67565C12.9318 8.53016 13.0449 8.40914 13.1852 8.32788C13.6676 8.04864 14.1589 7.78509 14.6584 7.53762C14.8532 7.44218 15.0779 7.42779 15.2833 7.49761C15.4887 7.56743 15.658 7.71577 15.7543 7.91017C15.8506 8.10456 15.866 8.32919 15.7971 8.53489C15.7282 8.74059 15.5806 8.91061 15.3866 9.00776C14.919 9.23948 14.459 9.48624 14.0073 9.74764C13.914 9.80184 13.8109 9.83703 13.7039 9.85118C13.5969 9.86532 13.4882 9.85815 13.384 9.83007ZM45.3757 16.1379C45.2017 16.0914 45.048 15.9887 44.9384 15.8458C44.6201 15.4321 44.2884 15.0289 43.9438 14.6367C43.8727 14.5558 43.8182 14.4617 43.7834 14.3597C43.7487 14.2577 43.7344 14.1499 43.7413 14.0424C43.7482 13.9349 43.7763 13.8298 43.8238 13.7331C43.8713 13.6365 43.9375 13.5501 44.0184 13.479C44.0993 13.4078 44.1934 13.3534 44.2954 13.3186C44.3974 13.2839 44.5052 13.2696 44.6127 13.2765C44.7202 13.2834 44.8253 13.3114 44.922 13.359C45.0187 13.4065 45.105 13.4726 45.1761 13.5535C45.5443 13.9725 45.8987 14.4034 46.2388 14.8455C46.3434 14.9815 46.4028 15.1468 46.4085 15.3182C46.4142 15.4897 46.3661 15.6586 46.2708 15.8013C46.1756 15.9439 46.038 16.0531 45.8774 16.1135C45.7168 16.1739 45.5414 16.1824 45.3757 16.1379ZM17.7961 7.82139C17.6262 7.77603 17.4753 7.67725 17.3657 7.53961C17.2562 7.40197 17.1938 7.23276 17.1878 7.05696C17.1818 6.88115 17.2324 6.70807 17.3322 6.56323C17.4321 6.4184 17.5758 6.3095 17.7423 6.2526C18.2694 6.07235 18.8022 5.90931 19.34 5.76374C19.55 5.70693 19.774 5.73588 19.9626 5.84422C20.1513 5.95255 20.2892 6.1314 20.346 6.34142C20.4028 6.55144 20.3739 6.77543 20.2656 6.96411C20.1572 7.15278 19.9784 7.29069 19.7684 7.3475C19.2652 7.48369 18.7666 7.63624 18.2734 7.8049C18.1195 7.85783 17.9533 7.86357 17.7961 7.82139ZM42.0565 12.6018C41.9354 12.5693 41.8235 12.5095 41.7293 12.4268C41.3362 12.083 40.9319 11.7522 40.5171 11.4349C40.3443 11.3027 40.2311 11.1072 40.2024 10.8916C40.1737 10.6759 40.2318 10.4577 40.364 10.2849C40.4962 10.1121 40.6916 9.99886 40.9073 9.97015C41.1229 9.94143 41.3412 9.99956 41.514 10.1318C41.9573 10.4709 42.3893 10.8245 42.8095 11.192C42.949 11.314 43.0432 11.4797 43.0765 11.662C43.1099 11.8444 43.0805 12.0326 42.9932 12.1961C42.9058 12.3596 42.7657 12.4888 42.5956 12.5624C42.4255 12.6361 42.2355 12.65 42.0565 12.6018ZM22.5112 6.71039C22.328 6.66131 22.1674 6.55027 22.0568 6.39617C21.9463 6.24207 21.8925 6.05443 21.9046 5.86515C21.9168 5.67587 21.9942 5.49666 22.1236 5.35799C22.253 5.21932 22.4264 5.12976 22.6144 5.10455C23.1663 5.03088 23.7203 4.97531 24.2758 4.93792C24.4917 4.92543 24.7038 4.9987 24.866 5.14178C25.0281 5.28487 25.1272 5.4862 25.1417 5.70197C25.1562 5.91774 25.0848 6.1305 24.9432 6.29396C24.8016 6.45742 24.6012 6.55835 24.3856 6.5748C23.8662 6.60979 23.348 6.66182 22.832 6.7308C22.7248 6.74527 22.6157 6.73833 22.5112 6.71039ZM27.3523 6.54472C27.1557 6.49195 26.9857 6.36792 26.8754 6.19676C26.7651 6.02559 26.7224 5.81953 26.7556 5.61863C26.7888 5.41774 26.8956 5.23638 27.0551 5.10982C27.2146 4.98326 27.4155 4.92055 27.6186 4.93388C28.1749 4.96997 28.7299 5.02426 29.2826 5.09665C29.3901 5.10977 29.494 5.14407 29.5882 5.19755C29.6824 5.25104 29.7651 5.32267 29.8315 5.40829C29.8979 5.49391 29.9467 5.59183 29.975 5.6964C30.0033 5.80097 30.0107 5.91012 29.9966 6.01755C29.9825 6.12497 29.9473 6.22854 29.893 6.32227C29.8386 6.41601 29.7663 6.49805 29.6801 6.56367C29.5938 6.62929 29.4955 6.67717 29.3907 6.70457C29.2859 6.73197 29.1766 6.73833 29.0693 6.72329C28.5539 6.65582 28.0301 6.60448 27.5125 6.5711C27.4584 6.56758 27.4047 6.55874 27.3523 6.54472ZM33.6869 7.79625C33.6702 7.79178 33.6535 7.78675 33.637 7.78119C33.1569 7.61988 32.6718 7.47356 32.1826 7.34244L32.1366 7.33013C31.9264 7.27417 31.747 7.13699 31.6379 6.94876C31.5288 6.76052 31.4989 6.53666 31.5549 6.32642C31.6108 6.11618 31.748 5.93678 31.9363 5.82769C32.1245 5.71859 32.3484 5.68874 32.5586 5.7447L32.6072 5.75772C33.1283 5.89734 33.6506 6.05486 34.1598 6.22606C34.3621 6.29373 34.53 6.43749 34.628 6.62687C34.726 6.81625 34.7465 7.03636 34.685 7.24055C34.6235 7.44474 34.4849 7.61695 34.2986 7.72069C34.1122 7.82443 33.8929 7.85153 33.6869 7.79625Z" fill="#E1E4EA"/>
<path d="M0.353768 26.8651C0.415954 26.6662 0.551552 26.4984 0.733006 26.3958C0.91446 26.2932 1.12816 26.2635 1.3307 26.3128C1.53323 26.3621 1.70941 26.4866 1.82343 26.6611C1.93745 26.8356 1.98077 27.047 1.94458 27.2523C1.85486 27.7661 1.78194 28.2827 1.72593 28.8012C1.7011 29.0163 1.59227 29.2128 1.42315 29.348C1.25404 29.4831 1.03835 29.5459 0.823117 29.5227C0.60788 29.4995 0.410542 29.3922 0.274114 29.2241C0.137686 29.056 0.0732335 28.8408 0.0948033 28.6254C0.154646 28.0712 0.232569 27.519 0.328455 26.9699C0.334597 26.9344 0.343053 26.8994 0.353768 26.8651Z" fill="#E1E4EA"/>
<path d="M25.993 48.9211C36.1978 48.9211 44.4704 40.6485 44.4704 30.4437C44.4704 20.2389 36.1978 11.9663 25.993 11.9663C15.7882 11.9663 7.51562 20.2389 7.51562 30.4437C7.51562 40.6485 15.7882 48.9211 25.993 48.9211Z" fill="#FED947"/>
<path d="M25.9929 49.7415C15.3521 49.7415 6.69531 41.0844 6.69531 30.4437C6.69531 19.8029 15.3521 11.146 25.9929 11.146C36.6337 11.146 45.2907 19.8029 45.2907 30.4437C45.2907 41.0844 36.6337 49.7415 25.9929 49.7415ZM25.9929 12.7866C16.2569 12.7866 8.33594 20.7076 8.33594 30.4437C8.33594 40.1798 16.2568 48.1009 25.9929 48.1009C35.7291 48.1009 43.6501 40.1799 43.6501 30.4437C43.6501 20.7076 35.7291 12.7866 25.9929 12.7866Z" fill="#F8BE32"/>
<path d="M31.1381 23.1306H20.8438C20.6262 23.1306 20.4175 23.0441 20.2637 22.8903C20.1099 22.7365 20.0234 22.5278 20.0234 22.3102C20.0234 22.0927 20.1099 21.884 20.2637 21.7302C20.4175 21.5764 20.6262 21.4899 20.8438 21.4899H31.1381C31.3557 21.4899 31.5643 21.5764 31.7182 21.7302C31.872 21.884 31.9584 22.0927 31.9584 22.3102C31.9584 22.5278 31.872 22.7365 31.7182 22.8903C31.5643 23.0441 31.3557 23.1306 31.1381 23.1306ZM31.1381 28.7456H20.8438C20.6262 28.7456 20.4175 28.6592 20.2637 28.5054C20.1099 28.3515 20.0234 28.1429 20.0234 27.9253C20.0234 27.7078 20.1099 27.4991 20.2637 27.3453C20.4175 27.1914 20.6262 27.105 20.8438 27.105H31.1381C31.3557 27.105 31.5643 27.1914 31.7182 27.3453C31.872 27.4991 31.9584 27.7078 31.9584 27.9253C31.9584 28.1429 31.872 28.3515 31.7182 28.5054C31.5643 28.6592 31.3557 28.7456 31.1381 28.7456Z" fill="white"/>
<path d="M28.3292 42.102C28.2183 42.1021 28.1085 42.0797 28.0065 42.0361C27.9045 41.9925 27.8124 41.9286 27.7359 41.8482L20.2818 34.0441C20.1893 33.9473 20.122 33.8294 20.0856 33.7006C20.0492 33.5719 20.0449 33.4361 20.073 33.3053C20.1011 33.1745 20.1608 33.0525 20.2468 32.95C20.3329 32.8475 20.4427 32.7677 20.5667 32.7174L20.621 32.6954C20.719 32.6557 20.8238 32.6352 20.9295 32.6352H22.7448C24.0052 32.6352 25.2139 32.1345 26.1052 31.2433C26.9964 30.352 27.4971 29.1432 27.4971 27.8828C27.4971 26.6224 26.9963 25.4137 26.1051 24.5224C25.2139 23.6312 24.0051 23.1305 22.7447 23.1306H20.9294C20.7118 23.1306 20.5032 23.0441 20.3493 22.8903C20.1955 22.7365 20.1091 22.5278 20.1091 22.3102C20.1091 22.0927 20.1955 21.884 20.3493 21.7302C20.5032 21.5764 20.7118 21.4899 20.9294 21.4899H22.7447C24.4363 21.4923 26.0579 22.1651 27.2545 23.3608C28.451 24.5565 29.1249 26.1777 29.1285 27.8693C29.1321 29.5609 28.4651 31.185 27.2736 32.3858C26.0822 33.5865 24.4634 34.2662 22.7718 34.2758L28.9223 40.7151C29.0332 40.8313 29.1076 40.9774 29.1362 41.1355C29.1649 41.2936 29.1464 41.4565 29.0833 41.6042C29.0201 41.7519 28.915 41.8778 28.7809 41.9663C28.6469 42.0548 28.4899 42.102 28.3292 42.102Z" fill="white"/>
<path d="M44.3008 22.6365C50.0998 22.6365 54.8008 17.9355 54.8008 12.1365C54.8008 6.33748 50.0998 1.63647 44.3008 1.63647C38.5018 1.63647 33.8008 6.33748 33.8008 12.1365C33.8008 17.9355 38.5018 22.6365 44.3008 22.6365Z" fill="#2370B5"/>
<path d="M44.3023 17.9342C44.2023 17.9343 44.1033 17.9147 44.0109 17.8764C43.9186 17.8382 43.8346 17.782 43.764 17.7113L41.3206 15.2679C41.2499 15.1972 41.1938 15.1133 41.1556 15.0209C41.1173 14.9286 41.0977 14.8296 41.0977 14.7296C41.0977 14.6297 41.1174 14.5307 41.1556 14.4383C41.1939 14.346 41.2499 14.2621 41.3206 14.1914C41.3913 14.1207 41.4752 14.0646 41.5676 14.0264C41.66 13.9881 41.759 13.9684 41.8589 13.9684C41.9589 13.9684 42.0579 13.9881 42.1502 14.0264C42.2426 14.0647 42.3265 14.1207 42.3972 14.1914L44.3023 16.0967L46.2076 14.1914C46.3503 14.0487 46.5439 13.9685 46.7458 13.9685C46.9477 13.9685 47.1413 14.0487 47.2841 14.1914C47.4268 14.3342 47.507 14.5278 47.507 14.7297C47.507 14.9316 47.4268 15.1252 47.2841 15.2679L44.8406 17.7113C44.77 17.782 44.6861 17.8382 44.5937 17.8764C44.5013 17.9147 44.4023 17.9343 44.3023 17.9342Z" fill="white"/>
<path d="M44.3002 17.9382C44.0984 17.9382 43.9047 17.858 43.762 17.7153C43.6193 17.5725 43.5391 17.3789 43.5391 17.1771V7.09844C43.5391 6.89657 43.6193 6.70297 43.762 6.56022C43.9047 6.41747 44.0984 6.33728 44.3002 6.33728C44.5021 6.33728 44.6957 6.41747 44.8384 6.56022C44.9812 6.70297 45.0614 6.89657 45.0614 7.09844V17.1771C45.0614 17.3789 44.9812 17.5725 44.8384 17.7153C44.6957 17.858 44.5021 17.9382 44.3002 17.9382Z" fill="white"/>
</g>
<defs>
<clipPath id="clip0_288_989">
<rect width="56.875" height="56" fill="white"/>
</clipPath>
</defs>
</svg>