<svg xmlns:inkscape="http://www.inkscape.org/namespaces/inkscape" xmlns:sodipodi="http://sodipodi.sourceforge.net/DTD/sodipodi-0.dtd" xmlns="http://www.w3.org/2000/svg" xmlns:svg="http://www.w3.org/2000/svg" version="1.1" id="svg2" width="500.00534" height="141.69067" viewBox="0 0 500.00534 141.69067" sodipodi:docname="Samsung Pay_button_basic_pos_RGB.ai"> <defs id="defs6"> <clipPath clipPathUnits="userSpaceOnUse" id="clipPath16"> <path d="M 0,106.268 H 369.504 V 0 H 0 Z" id="path14"/> </clipPath> </defs> <sodipodi:namedview id="namedview4" pagecolor="#ffffff" bordercolor="#000000" borderopacity="0.25" inkscape:showpageshadow="2" inkscape:pageopacity="0.0" inkscape:pagecheckerboard="0" inkscape:deskcolor="#d1d1d1"/> <g id="g8" inkscape:groupmode="layer" inkscape:label="Samsung Pay_button_basic_pos_RGB" transform="matrix(1.3333333,0,0,-1.3333333,0,141.69067)"> <g id="g10"> <g id="g12" clip-path="url(#clipPath16)"> <g id="g18" transform="translate(9.0629,23.2361)"> <path d="m0 0v59.795c0 7.828 6.346 14.174 14.173 14.174h330.032c7.828 0 14.173-6.346 14.173-14.174V0c0-7.828-6.345-14.173-14.173-14.173H14.173C6.346-14.173 0-7.828 0 0" style="fill: #00000000;fill-opacity:1;fill-rule:nonzero;stroke:none" id="path20"/> </g> <g id="g22" transform="translate(250.1372,61.3994)"> <path d="m 0,0 v -9.745 h 3.768 c 2.898,0 4.926,2.174 4.926,4.891 C 8.694,-2.138 6.666,0 3.768,0 Z M -4.926,4.564 H 4.13 c 5.47,0 9.527,-4.202 9.527,-9.418 0,-5.253 -4.057,-9.455 -9.563,-9.455 H 0 v -7.571 h -4.926 z" style="fill:#ffffff;fill-opacity:1;fill-rule:nonzero;stroke:none" id="path24"/> </g> <g id="g26" transform="translate(282.6645,50.1699)"> <path d="m 0,0 c 0,3.622 -2.681,6.521 -6.339,6.521 -3.623,0 -6.412,-2.863 -6.412,-6.521 0,-3.695 2.789,-6.594 6.412,-6.594 C -2.681,-6.594 0,-3.659 0,0 m -17.568,-0.073 c 0,7.028 5.143,11.049 10.505,11.049 2.789,0 5.251,-1.123 6.809,-2.97 v 2.535 H 4.637 V -10.65 h -4.891 v 2.753 c -1.558,-1.993 -4.093,-3.188 -6.882,-3.188 -5.108,0 -10.432,4.057 -10.432,11.012" style="fill:#ffffff;fill-opacity:1;fill-rule:nonzero;stroke:none" id="path28"/> </g> <g id="g30" transform="translate(297.9477,40.5703)"> <path d="m 0,0 -8.693,20.141 h 5.215 L 2.428,5.868 8.006,20.141 h 5.143 L 0.508,-10.831 h -4.963 z" style="fill:#ffffff;fill-opacity:1;fill-rule:nonzero;stroke:none" id="path32"/> </g> <g id="g34" transform="translate(196.9545,66.9512)"> <path d="M 0,0 0.372,-21.534 H 0.221 L -6.083,0 h -10.183 v -27.15 h 6.747 l -0.379,22.277 h 0.151 l 6.772,-22.277 h 9.769 l 0,27.15 z" style="fill:#ffffff;fill-opacity:1;fill-rule:nonzero;stroke:none" id="path36"/> </g> <g id="g38" transform="translate(67.8142,66.9512)"> <path d="m 0,0 -5.086,-27.432 h 7.415 l 3.752,24.89 0.154,0.003 3.656,-24.893 h 7.37 L 12.205,0 Z" style="fill:#ffffff;fill-opacity:1;fill-rule:nonzero;stroke:none" id="path40"/> </g> <g id="g42" transform="translate(109.2656,66.9512)"> <path d="M 0,0 -3.384,-20.977 H -3.539 L -6.918,0 h -11.19 l -0.605,-27.432 h 6.867 l 0.171,24.66 h 0.152 l 4.582,-24.66 H 0.02 l 4.585,24.658 0.151,0.002 0.172,-24.66 H 11.79 L 11.185,0 Z" style="fill:#ffffff;fill-opacity:1;fill-rule:nonzero;stroke:none" id="path44"/> </g> <g id="g46" transform="translate(51.1826,47.2572)"> <path d="m 0,0 c 0.269,-0.664 0.183,-1.515 0.054,-2.029 -0.223,-0.914 -0.844,-1.847 -2.672,-1.847 -1.716,0 -2.757,0.994 -2.757,2.488 l -0.006,2.659 h -7.357 l -0.002,-2.115 c 0,-6.12 4.815,-7.968 9.97,-7.968 4.964,0 9.045,1.693 9.697,6.272 0.335,2.368 0.088,3.919 -0.029,4.497 -1.158,5.745 -11.566,7.458 -12.343,10.67 -0.13,0.557 -0.099,1.135 -0.029,1.442 0.194,0.881 0.79,1.842 2.506,1.842 1.607,0 2.548,-0.991 2.548,-2.485 v -1.7 h 6.846 v 1.932 c 0,5.975 -5.367,6.91 -9.25,6.91 -4.876,0 -8.864,-1.616 -9.591,-6.09 -0.199,-1.224 -0.226,-2.318 0.063,-3.7 C -11.162,5.171 -1.413,3.55 0,0" style="fill:#ffffff;fill-opacity:1;fill-rule:nonzero;stroke:none" id="path48"/> </g> <g id="g50" transform="translate(140.3747,47.3093)"> <path d="m 0,0 c 0.262,-0.659 0.181,-1.497 0.052,-2.009 -0.221,-0.903 -0.835,-1.824 -2.646,-1.824 -1.699,0 -2.731,0.98 -2.731,2.463 l -0.004,2.63 h -7.285 l -0.002,-2.095 c 0,-6.059 4.77,-7.887 9.874,-7.887 4.914,0 8.954,1.675 9.6,6.21 0.329,2.343 0.088,3.878 -0.03,4.453 C 5.679,7.63 -4.625,9.325 -5.39,12.505 c -0.134,0.549 -0.1,1.12 -0.034,1.424 0.194,0.872 0.785,1.824 2.481,1.824 1.595,0 2.525,-0.977 2.525,-2.46 v -1.68 h 6.779 v 1.91 c 0,5.916 -5.316,6.84 -9.16,6.84 -4.824,0 -8.774,-1.596 -9.492,-6.027 -0.198,-1.212 -0.225,-2.296 0.063,-3.662 C -11.054,5.119 -1.399,3.517 0,0" style="fill:#ffffff;fill-opacity:1;fill-rule:nonzero;stroke:none" id="path52"/> </g> <g id="g54" transform="translate(163.4048,43.6249)"> <path d="M 0,0 C 1.907,0 2.494,1.314 2.63,1.989 2.688,2.284 2.697,2.684 2.695,3.036 V 23.331 H 9.638 V 3.661 C 9.647,3.156 9.596,2.124 9.568,1.856 9.09,-3.264 5.043,-4.923 0,-4.923 c -5.045,0 -9.092,1.659 -9.573,6.779 -0.025,0.268 -0.077,1.3 -0.063,1.805 v 19.67 h 6.938 V 3.036 C -2.704,2.684 -2.691,2.284 -2.632,1.989 -2.499,1.314 -1.91,0 0,0" style="fill:#ffffff;fill-opacity:1;fill-rule:nonzero;stroke:none" id="path56"/> </g> <g id="g58" transform="translate(220.6237,43.9102)"> <path d="M 0,0 C 1.986,0 2.679,1.257 2.804,1.991 2.86,2.3 2.874,2.684 2.869,3.032 V 7.016 H 0.056 v 3.999 H 9.774 V 3.661 C 9.769,3.144 9.758,2.767 9.675,1.856 9.221,-3.142 4.889,-4.925 0.027,-4.925 c -4.864,0 -9.191,1.783 -9.65,6.781 -0.079,0.911 -0.092,1.288 -0.094,1.805 l 0.002,11.542 c 0,0.487 0.058,1.347 0.115,1.805 0.612,5.129 4.763,6.779 9.629,6.779 4.865,0 9.124,-1.634 9.63,-6.779 0.088,-0.873 0.058,-1.805 0.063,-1.805 V 14.288 H 2.804 v 1.538 c 0.002,-0.003 -0.005,0.65 -0.086,1.045 -0.124,0.605 -0.646,1.991 -2.743,1.991 -1.995,0 -2.582,-1.314 -2.733,-1.991 C -2.837,16.51 -2.869,16.02 -2.869,15.573 V 3.031 C -2.871,2.684 -2.858,2.3 -2.806,1.991 -2.677,1.257 -1.984,0 0,0" style="fill:#ffffff;fill-opacity:1;fill-rule:nonzero;stroke:none" id="path60"/> </g> <g id="g60" transform="translate(318.9477,40.5703)"> <path d="m19.888 13.312-11.872 11.872q-.304.304-.72.304t-.72-.304l-1.776-1.584q-.304-.304-.304-.72t.304-.72l9.28-9.28-9.28-9.6q-.304-.304-.304-.72t.304-.72L6.576 0q.304-.304.72-.304t.72.304l11.872 11.872q.304.304.304.72t-.304.72z" style="fill:#ffffff;fill-opacity:1;fill-rule:nonzero;stroke:none" id="path32"/> </g></g> </g> </g> </svg>