<svg xmlns="http://www.w3.org/2000/svg" viewBox="0 0 30 20"><path d="M30.124 10.008v.012c0 .107-.043.21-.12.286l-9.63 9.631a.202.202 0 0 1-.144.06h-.061a.204.204 0 0 1-.204-.204V10.02c0 .107-.043.21-.119.286l-9.571 9.572a.407.407 0 0 1-.287.119h-.01a.41.41 0 0 1-.289-.12l-9.57-9.57A.407.407 0 0 1 0 10.021v-.011c0-.108.043-.21.12-.287L9.69.15A.408.408 0 0 1 9.98.031h.01c.109 0 .211.043.287.12l9.572 9.57c.076.077.119.18.119.287V.235c0-.112.091-.204.203-.204h.061c.054 0 .105.021.144.06l9.631 9.63c.076.077.12.18.12.287h-.002Z"/></svg>