<svg xmlns="http://www.w3.org/2000/svg" width="48" height="24" viewBox="0 0 48 24" fill="none">
  <rect x="0.5" y="0.5" width="47" height="23" rx="1.5" fill="#FAFAFA"/>
  <rect x="0.5" y="0.5" width="47" height="23" rx="1.5" stroke="#E6E6E6"/>
  <path d="M26.7234 12.2047H26.7018L25.8001 9.125H24.3438V13.0079H25.3087L25.2545 9.82191H25.2761L26.2447 13.0079H27.6418V9.125H26.6701L26.7234 12.2047Z" fill="black"/>
  <path d="M9.06962 9.48846L9.09152 9.48811L9.6146 13.0482H10.6686L9.94542 9.125H8.19993L7.47266 13.0482H8.53311L9.06962 9.48846Z" fill="black"/>
  <path d="M14.1293 9.125L13.6454 12.1249H13.6231L13.1399 9.125H11.5396L11.4531 13.0482H12.4351L12.4597 9.52136H12.4813L13.1367 13.0482H14.1322L14.7878 9.52171L14.8094 9.52136L14.834 13.0482H15.8154L15.7289 9.125H14.1293Z" fill="black"/>
  <path d="M5.42593 13.2018C6.13583 13.2018 6.71947 12.9597 6.81276 12.3047C6.86049 11.9661 6.82541 11.7443 6.80857 11.6617C6.64294 10.8401 5.15444 10.595 5.04335 10.1356C5.02468 10.0559 5.02921 9.97328 5.03916 9.92939C5.06691 9.80346 5.15217 9.66593 5.39748 9.66593C5.62734 9.66593 5.76199 9.80765 5.76199 10.0214V10.2645H6.74111V9.98811C6.74111 9.1336 5.97343 9 5.41816 9C4.72091 9 4.15045 9.23108 4.04651 9.87091C4.01806 10.0459 4.01422 10.2025 4.0555 10.4001C4.22567 11.202 5.61992 11.4337 5.82203 11.9416C5.86042 12.0364 5.84821 12.1581 5.82979 12.2317C5.79785 12.3624 5.70902 12.4958 5.44757 12.4958C5.20226 12.4958 5.05339 12.3537 5.05339 12.14L5.05243 11.7598H4.00035L4 12.0622C4 12.9374 4.68861 13.2018 5.42593 13.2018Z" fill="black"/>
  <path d="M17.8068 10.1472C17.7877 10.0688 17.7926 9.98712 17.8018 9.94348C17.8297 9.81887 17.9143 9.68265 18.1567 9.68265C18.3849 9.68265 18.5179 9.82245 18.5179 10.0346V10.2747H19.4874V10.0016C19.4874 9.15556 18.7272 9.02344 18.1774 9.02344C17.4876 9.02344 16.9226 9.25164 16.8198 9.88536C16.7915 10.0587 16.7876 10.2137 16.8289 10.4091C16.9968 11.2034 18.3775 11.4327 18.5777 11.9356C18.6152 12.0298 18.6035 12.1497 18.5851 12.223C18.5535 12.3521 18.4657 12.4837 18.2068 12.4837C17.9636 12.4837 17.8161 12.3436 17.8161 12.1316L17.8155 11.7556H16.7737L16.7734 12.0551C16.7734 12.9215 17.4556 13.183 18.1855 13.183C18.8882 13.183 19.4661 12.9435 19.5584 12.2949C19.6055 11.9598 19.571 11.7403 19.5542 11.658C19.3899 10.8444 17.9163 10.6021 17.8068 10.1472Z" fill="black"/>
  <path d="M23.2491 9.125H22.2561V12.0275C22.2565 12.0778 22.2551 12.135 22.2468 12.1773C22.2273 12.2738 22.1435 12.4616 21.8707 12.4616H21.8706C21.5976 12.4616 21.5133 12.2738 21.4942 12.1773C21.4858 12.135 21.4838 12.0778 21.4848 12.0275V9.125H20.4925V11.938C20.4905 12.0104 20.4981 12.1579 20.5015 12.1962C20.5703 12.9285 21.1492 13.1658 21.8707 13.1658C22.5919 13.1658 23.1707 12.9285 23.2391 12.1962C23.243 12.1579 23.2504 12.0104 23.2491 11.938V9.125Z" fill="black"/>
  <path d="M30.0619 10.8461V11.4181H30.4641V11.9879C30.4648 12.0375 30.4629 12.0924 30.4548 12.1367C30.4371 12.2417 30.3379 12.4215 30.0538 12.4215C29.7701 12.4215 29.6711 12.2417 29.6526 12.1368C29.6452 12.0925 29.6432 12.0376 29.6434 11.9879V10.1943C29.6434 10.1304 29.6481 10.0603 29.6594 10.0086C29.681 9.91183 29.7649 9.72394 30.0502 9.72394C30.3502 9.72394 30.4248 9.92212 30.4425 10.0086C30.4542 10.0652 30.4552 10.1584 30.4548 10.1581V10.378H31.4443V10.2473C31.4436 10.2473 31.4478 10.1139 31.4352 9.98897C31.3629 9.25323 30.7537 9.01953 30.0581 9.01953C29.3619 9.01953 28.7684 9.2555 28.6809 9.98897C28.6728 10.0545 28.6643 10.1776 28.6643 10.2473L28.6641 11.8978C28.6643 11.9717 28.6664 12.0257 28.6777 12.1561C28.7433 12.8708 29.3619 13.1258 30.0577 13.1258C30.7531 13.1258 31.3726 12.8708 31.4375 12.1561C31.4493 12.0257 31.451 11.9717 31.4517 11.8978V10.8461H30.0619Z" fill="black"/>
  <path d="M34.9259 11.2697H34.3283V9.72387H34.9259C35.3913 9.72387 35.7074 10.0688 35.7074 10.4938C35.7074 10.9249 35.3913 11.2697 34.9259 11.2697ZM34.9834 9H33.5469V13.1945H34.3283V11.9936H34.9776C35.851 11.9936 36.4946 11.3271 36.4946 10.4938C36.4946 9.66654 35.851 9 34.9834 9Z" fill="black"/>
  <path d="M38.4823 12.5524C37.9077 12.5524 37.4654 12.0927 37.4654 11.5068C37.4654 10.9264 37.9077 10.4725 38.4823 10.4725C39.0568 10.4725 39.4878 10.9379 39.4878 11.5068C39.4878 12.0871 39.0568 12.5524 38.4823 12.5524ZM39.4477 10.2369C39.2063 9.94967 38.8098 9.76562 38.3675 9.76562C37.517 9.76562 36.7012 10.4036 36.7012 11.5182C36.7012 12.6158 37.5457 13.265 38.3559 13.265C38.7983 13.265 39.2006 13.0696 39.4477 12.7594V13.196H40.2233V9.83467H39.4477V10.2369Z" fill="black"/>
  <path d="M42.2992 12.0958L41.3626 9.83203H40.5352L41.9142 13.0267L41.2074 14.7447H41.9947L44 9.83203H43.184L42.2992 12.0958Z" fill="black"/>
</svg>
